<svg width="80" height="56" viewBox="0 0 80 56" fill="none" xmlns="http://www.w3.org/2000/svg">
<path d="M51.695 17.6188C51.3611 18.0491 52.2324 19.2835 53.1109 20.3756C52.52 19.5165 52.0487 18.6814 52.2466 18.3717C52.6921 17.674 57.3247 17.0925 57.1858 19.1894C57.0467 21.2861 56.9581 21.9158 57.0941 22.6378C57.2299 23.3593 56.8244 24.5742 56.454 25.0793C56.3681 25.1965 56.2369 25.1486 56.0852 25.0028C56.6616 25.8803 57.1996 26.3489 57.246 25.14C57.7551 24.564 58.0655 22.969 57.9154 22.1717C57.7649 21.3744 57.907 20.6707 58.1748 18.3334C58.4429 15.9962 52.3109 16.8255 51.695 17.6188Z" fill="#614930"/>
<path d="M58.599 40.1698C59.773 43.2077 59.3269 51.1129 57.9622 51.9893C56.5975 52.8657 55.3062 52.3907 55.3062 52.3907C57.9935 52.6304 59.1129 39.2734 56.426 39.0334C56.9764 39.026 57.4246 37.132 58.599 40.1698Z" fill="#614930"/>
<path d="M27.9559 1.60623C28.0274 1.55545 28.1241 1.49023 28.0697 1.44482C27.9808 1.37063 27.8382 1.39856 27.6959 1.48245C27.6029 1.5372 27.5563 1.61727 27.6084 1.66501C27.6999 1.74897 27.8379 1.66084 27.9559 1.60623Z" fill="#614930"/>
<path d="M29.3228 1.18293C30.0652 0.869299 30.7068 0.613885 31.5553 0.215733C31.362 0.40183 29.8483 1.26632 29.8483 1.26632C29.8483 1.26632 29.3978 1.5414 29.1446 1.61439C29.0182 1.65089 28.927 1.71561 28.9481 1.53107C28.967 1.3628 28.8758 1.67055 28.6187 1.34547C28.3614 1.02031 31.048 0.0947812 31.2985 0C30.6639 0.365615 30.0234 0.692469 29.3228 1.18293Z" fill="#614930"/>
<path d="M28.1631 0.965332C28.1631 0.965332 25.3697 1.42976 27.492 5.02664C27.6995 5.24767 29.4399 7.22471 27.7994 6.93054C26.1589 6.63671 23.682 10.4366 23.682 11.0546C22.858 12.1512 22.9358 12.8723 22.9358 12.8723C22.9358 12.8723 23.0067 12.2492 23.7181 11.305C23.8063 11.3705 23.9688 11.2564 23.9999 11.1787C24.5093 8.35989 28.1703 8.50581 28.5823 7.06521C28.7007 6.65199 28.4495 6.10792 27.9051 5.32583C25.4639 1.81787 28.1631 0.965332 28.1631 0.965332Z" fill="#614930"/>
<path d="M23.106 12.6367C23.106 12.6367 24.4553 11.1081 26.1219 10.3235C27.7886 9.53881 27.6026 8.11037 28.0852 7.84937C27.7033 8.3104 27.6482 8.9187 28.6453 8.88616C27.0433 9.34974 27.9363 9.75489 27.8818 9.85434C25.4145 10.7664 23.106 12.6367 23.106 12.6367Z" fill="#614930"/>
<path d="M27.5753 2.33631C27.5753 2.33631 27.9997 2.54483 28.7576 2.06824C28.306 2.62108 28.0411 2.25914 27.6847 2.63261C27.4055 2.95635 27.6284 3.90028 28.2274 4.58391C27.6848 4.26483 27.222 3.59924 27.2805 3.11196C27.339 2.62462 27.5613 2.42763 27.5753 2.33631Z" fill="#614930"/>
<path d="M23.3291 12.9924C23.3291 12.9924 24.3203 11.9695 24.7999 11.8561C25.2792 11.7425 25.1794 11.5795 25.3196 11.5378C25.3464 11.7294 25.598 11.7052 25.598 11.7052C25.1501 11.7381 25.8679 12.2281 25.8489 12.2512C24.6995 11.5785 23.3291 12.9924 23.3291 12.9924Z" fill="#614930"/>
<path d="M78.7795 40.8419C78.4971 40.8153 78.2046 40.7949 77.9319 40.713C77.6478 40.6279 77.4397 40.4713 77.2674 40.2343C77.0764 39.9719 76.9086 39.6909 76.7321 39.4193C76.7274 39.4114 76.7224 39.4052 76.7167 39.3992C76.7586 39.3703 76.7964 39.336 76.8293 39.2977C76.8646 39.3277 76.911 39.3448 76.9557 39.3313C77.5162 39.1597 78.0372 39.5364 78.406 39.9163C78.5965 40.1131 78.774 40.3223 78.9723 40.512C79.0751 40.6102 79.1813 40.7049 79.2967 40.7882C79.3283 40.8112 79.3681 40.8329 79.4093 40.8554C79.2011 40.8729 78.9906 40.8615 78.7795 40.8419ZM76.8737 38.8C76.9161 38.3623 77.3017 38.0424 77.7122 37.9165C77.9647 37.8391 78.2375 37.828 78.5 37.8438C78.6406 37.8521 78.7805 37.8679 78.9197 37.8877C78.9991 37.8989 79.1054 37.9027 79.199 37.9207C79.1789 37.9595 79.1601 38.0122 79.1554 38.0227C79.1313 38.0764 79.1077 38.1306 79.0832 38.1842C79.0327 38.2941 78.9782 38.4013 78.9036 38.4972C78.7652 38.675 78.5586 38.7929 78.3427 38.8603C77.865 39.0095 77.3529 38.9089 76.8733 38.8044C76.8736 38.803 76.8737 38.8015 76.8737 38.8ZM76.0769 38.8885C76.0269 39.007 75.9453 39.0677 75.8216 39.0711C75.6891 39.075 75.5582 39.1186 75.5284 39.2682C75.5134 39.343 75.5589 39.3895 75.5558 39.4567C75.5529 39.5151 75.4855 39.5804 75.4493 39.6212C75.3554 39.7268 75.2436 39.8206 75.1242 39.8951C74.8967 40.0378 74.6306 40.1246 74.3637 40.1324C74.2302 40.1359 74.0959 40.1206 73.975 40.1927C73.8533 40.2653 73.8009 40.4046 73.703 40.5024C73.3664 40.8372 72.7747 40.8388 72.3409 40.7893C72.2279 40.7763 72.1106 40.7551 72.0085 40.7008C71.8924 40.6391 71.8473 40.5474 71.7977 40.4292C71.7507 40.317 71.6851 40.2177 71.5741 40.1651C71.4534 40.108 71.3136 40.1103 71.19 40.0577C70.6513 39.8283 70.4569 39.1429 70.7947 38.6537C70.8724 38.5413 70.9708 38.4429 71.0875 38.3735C71.217 38.2961 71.3693 38.2734 71.4949 38.1892C71.7513 38.0174 71.7659 37.6919 71.747 37.4094C71.7614 37.3886 71.7714 37.3625 71.7737 37.3305C71.821 36.7097 72.4802 36.4708 73.0021 36.5233C73.1489 36.5383 73.2924 36.5694 73.4335 36.6117C73.592 36.6586 73.7512 36.7177 73.9184 36.7167C74.1989 36.7141 74.4561 36.5413 74.7383 36.6152C74.9676 36.6752 75.1708 36.8458 75.2559 37.0736C75.2997 37.1919 75.3092 37.32 75.38 37.4272C75.4611 37.5498 75.5809 37.596 75.7149 37.6338C75.9456 37.6987 76.0557 37.8642 76.1036 38.0989C76.1523 38.3365 76.1721 38.6606 76.0769 38.8885ZM75.5326 42.0039C75.6144 42.0756 75.7315 42.0145 75.771 41.9354C75.9135 41.6508 76.3684 41.7221 76.6084 41.8167C76.9349 41.945 77.2017 42.2043 77.3387 42.5187C77.4042 42.6694 77.3998 42.8624 77.51 42.9908C77.6314 43.1321 77.8213 43.1267 77.9932 43.1327C78.3265 43.1446 78.6311 43.427 78.6351 43.7585C78.6399 44.1421 78.2335 44.4209 77.8626 44.3609C77.7312 44.3396 77.6352 44.5147 77.7266 44.6096C78.0198 44.9141 78.3586 45.2937 78.1341 45.7288C77.9175 46.1493 77.4077 46.2759 76.9628 46.3039C76.853 46.3108 76.7373 46.3006 76.6321 46.3355C76.5267 46.3706 76.4508 46.4451 76.3817 46.5275C76.2485 46.6859 76.1105 46.8278 75.93 46.9371C75.566 47.1573 75.1142 47.2415 74.694 47.1455C74.2212 47.0378 73.8101 46.7179 73.5917 46.298C73.5571 46.2314 73.4576 46.1782 73.3831 46.223C73.1476 46.3653 72.8485 46.3955 72.5992 46.2605C72.3692 46.1357 72.2181 45.8841 72.2172 45.6285C72.2167 45.5087 72.1136 45.4337 71.9955 45.4748C71.7242 45.5693 71.4046 45.4383 71.2978 45.1756C71.2494 45.0557 71.2446 44.9161 71.2882 44.7944C71.3392 44.653 71.4583 44.5484 71.5344 44.4204C71.6105 44.2925 71.6415 44.1523 71.6508 44.0058C71.6602 43.8605 71.6425 43.7 71.6954 43.5613C71.7986 43.2898 72.1652 43.3432 72.3961 43.3843C72.5482 43.4113 72.6325 43.1876 72.5031 43.109C72.4314 43.0658 72.3598 43.0225 72.2887 42.9792C72.2878 42.9511 72.2795 42.9225 72.2599 42.8944C72.0772 42.6289 72.1275 42.2279 72.3812 42.0233C72.6333 41.8204 73.0131 41.8357 73.2637 42.0315C73.3868 42.1279 73.5657 41.979 73.4979 41.8447C73.4162 41.6836 73.5343 41.5154 73.6683 41.4206C73.8483 41.2941 74.0944 41.2765 74.3079 41.3049C74.792 41.3691 75.1824 41.6974 75.5326 42.0039ZM77.6037 49.2503C77.9271 49.8943 77.9193 50.6884 77.8914 51.4352C77.107 51.4814 76.3226 51.1684 75.7499 50.5414C75.1819 49.9196 74.882 48.984 75.0332 48.04C75.4084 48.1603 75.821 48.1339 76.2091 47.9316C76.7389 48.2447 77.2911 48.6269 77.6037 49.2503ZM72.6401 48.915C72.6152 49.3748 72.5707 49.8442 72.4378 50.2862C72.3089 50.7149 72.0887 51.1108 71.7294 51.3561C71.3605 51.6079 70.925 51.707 70.5438 51.9323C70.1658 52.1556 69.8928 52.4981 69.6494 52.8701C69.5496 52.5141 69.3917 52.1802 69.253 51.8394C69.1595 51.6103 69.0755 51.3762 69.0327 51.1282C68.9843 50.8491 68.9836 50.5646 69.0021 50.2811C69.035 49.7693 69.0988 49.2393 69.2894 48.7622C69.4661 48.3213 69.7687 47.9836 70.1616 47.766C70.5938 47.5268 71.0733 47.4218 71.544 47.3224C71.6019 47.3103 71.637 47.2706 71.6518 47.2234C71.6966 47.268 71.7457 47.3078 71.7994 47.3421C71.9834 47.4588 72.1999 47.5041 72.4106 47.4759C72.4124 47.4806 72.4145 47.4848 72.4172 47.49C72.6498 47.9199 72.6666 48.4241 72.6401 48.915ZM70.9212 42.9239C70.8433 42.8885 70.758 42.8734 70.6736 42.8627C70.5991 42.8531 70.4841 42.8624 70.4177 42.826C70.3452 42.7862 70.3992 42.7197 70.4229 42.6431C70.4604 42.5224 70.4913 42.4 70.5181 42.2768C70.5753 42.0164 70.6065 41.7506 70.6113 41.484C70.6168 41.2003 70.6352 40.7899 70.4522 40.5425C70.4682 40.5485 70.4847 40.5542 70.5006 40.5596C70.6466 40.6086 70.8507 40.5849 70.9256 40.7361C70.9923 40.871 71.0385 40.999 71.1506 41.1054C71.2696 41.2179 71.4195 41.2898 71.5773 41.3321C71.7408 41.3761 71.9111 41.3975 72.0822 41.4055C72.0414 41.4327 72.002 41.4632 71.965 41.4967C71.5568 41.8668 71.4986 42.4843 71.7808 42.9407C71.5697 42.9588 71.3705 43.0281 71.23 43.1895C71.1532 43.0757 71.0476 42.9812 70.9212 42.9239ZM69.8166 44.5747C69.7293 44.7454 69.6814 44.9233 69.6391 45.1113C69.5987 45.2926 69.5572 45.4784 69.4442 45.6268C69.2371 45.8992 68.8868 45.9849 68.5766 45.9513C68.3821 45.9303 68.1972 45.8668 68.0177 45.7887C67.9172 45.7448 67.8086 45.8459 67.8259 45.9574C67.8813 46.3166 67.63 46.6231 67.3299 46.7481C67.0418 46.8682 66.6652 46.8716 66.3827 46.7411C66.2529 46.6814 66.1811 46.5937 66.1229 46.4599C66.0577 46.3102 65.9159 46.1879 65.7634 46.3059C65.6397 46.4011 65.552 46.5059 65.4031 46.564C65.2472 46.6246 65.0833 46.628 64.9236 46.5917C64.8869 46.5831 64.8568 46.5893 64.8334 46.6047C64.6856 46.5001 64.5402 46.3915 64.399 46.2769C64.3236 46.216 64.2495 46.1535 64.1762 46.0895C64.1185 46.0398 64.0384 45.9847 64.0121 45.9064C63.9848 45.8257 64.0144 45.723 64.0229 45.6411C64.0319 45.559 64.0344 45.4736 64.0166 45.3934C63.9848 45.2523 63.9066 45.1371 63.8048 45.0449C63.5913 44.8506 63.3111 44.8046 63.0612 44.688C62.9516 44.637 62.8305 44.5663 62.7689 44.4522C62.6904 44.3062 62.7586 44.1355 62.8659 44.0269C62.9939 43.8969 63.1708 43.8477 63.3344 43.7968C63.4966 43.7468 63.627 43.6616 63.6687 43.4759C63.7517 43.1055 63.5609 42.7489 63.5481 42.3842C63.5416 42.2003 63.5869 42.0365 63.7225 41.9141C63.8657 41.7855 64.0276 41.6776 64.18 41.5621L65.1746 40.8112C65.2375 40.7631 65.3065 40.7018 65.3832 40.6829C65.4628 40.6638 65.5059 40.7522 65.5593 40.8025C65.6778 40.9144 65.8299 40.9674 65.9845 40.9958C66.1377 41.0236 66.3254 41.0515 66.4777 41.0068C66.6202 40.9649 66.709 40.8455 66.768 40.707C66.8259 40.571 66.854 40.4292 66.9511 40.3153C67.0466 40.2034 67.1807 40.1273 67.3211 40.1099C67.4683 40.0918 67.6152 40.1432 67.7309 40.2379C67.8493 40.3344 67.9031 40.4697 67.956 40.6138C68.0057 40.7481 68.0607 40.8847 68.1645 40.9809C68.291 41.0978 68.4523 41.1155 68.6144 41.092C68.8034 41.0644 68.987 41.0191 69.1786 41.0091C69.3039 41.0027 69.5677 40.9579 69.6336 41.1057C69.7011 41.2563 69.6846 41.4816 69.6817 41.6444C69.678 41.8563 69.6563 42.0685 69.6165 42.2772C69.5985 42.3718 69.5757 42.4655 69.5493 42.5583C69.5229 42.6519 69.4836 42.7458 69.4883 42.8445C69.4951 42.987 69.5857 43.0898 69.7099 43.1313C69.8289 43.1716 69.9687 43.1473 70.0818 43.2009C70.2062 43.2593 70.2719 43.4188 70.2758 43.5576C70.2863 43.9375 69.9775 44.2606 69.8166 44.5747ZM64.5992 49.7044C64.1004 49.2691 63.6934 48.5723 63.7646 47.7837C63.7673 47.7518 63.7637 47.7242 63.7553 47.7006C63.7966 47.3948 63.8288 47.0876 63.8594 46.78C63.8829 46.8008 63.9057 46.8212 63.9277 46.8415C64.0843 46.9859 64.2457 47.1223 64.4112 47.2522C64.4636 47.2932 64.5182 47.2849 64.5609 47.2522C64.5739 47.2615 64.5888 47.2687 64.6062 47.2728C64.7864 47.3175 64.974 47.3018 65.1524 47.2323C65.2307 47.2016 65.3053 47.1636 65.3766 47.113C65.4253 47.0785 65.5198 47.0193 65.5705 46.9553C65.5708 46.9562 65.5711 46.9567 65.5711 46.9572C65.5881 47.0036 65.6061 47.0476 65.6293 47.0898C65.6684 47.1603 65.7178 47.2213 65.773 47.2735C65.872 47.3656 65.9899 47.4229 66.1119 47.4602C66.1132 47.4795 66.118 47.5 66.1268 47.5208C66.537 48.4765 66.3036 49.6204 66.4421 50.6617C65.807 50.4005 65.1425 50.1787 64.5992 49.7044ZM65.0856 35.5957C65.1831 35.521 65.158 35.3624 65.0373 35.3212C64.6449 35.1866 64.24 35.0378 64.0665 34.649C63.9362 34.3576 63.9527 33.9932 64.1303 33.7243C64.342 33.4024 64.7416 33.2734 65.1247 33.2427C65.3303 33.2261 65.5371 33.2398 65.7416 33.2643C65.9572 33.2903 66.1187 33.2288 66.1814 33.0202C66.3149 32.5745 66.7725 32.4603 67.2121 32.4131C67.5951 32.3721 68.1972 32.3231 68.3512 32.7634C68.418 32.9549 68.5353 33.0971 68.7716 33.0617C68.8765 33.0462 68.9707 32.9958 69.0722 32.9694C69.1891 32.9394 69.3118 32.9307 69.4326 32.9421C69.8568 32.981 70.2115 33.2734 70.3062 33.6687C70.3569 33.8795 70.2604 34.1226 70.4035 34.3071C70.4719 34.3955 70.5662 34.46 70.6279 34.5548C70.6895 34.6488 70.7282 34.7564 70.7507 34.8642C70.7981 35.0908 70.7837 35.3472 70.6525 35.5466C70.5402 35.7172 70.3146 35.8509 70.0945 35.7998C69.9314 35.7622 69.7993 35.9113 69.9039 36.0512C70.0548 36.2537 70.2193 36.4828 70.1378 36.7406C70.0575 36.9927 69.8259 37.1603 69.5741 37.2473C69.3368 37.3294 69.0552 37.3638 68.8026 37.3463C68.627 37.334 68.357 37.2901 68.3013 37.0998C68.2896 37.0601 68.2668 37.0307 68.2384 37.0103C68.1744 36.9309 68.0429 36.9002 67.9713 37.0073C67.7626 37.3177 67.391 37.4456 67.0155 37.472C66.7916 37.4877 66.5652 37.4666 66.3421 37.4429C66.1235 37.4195 65.8838 37.4099 65.6857 37.3079C65.1454 37.0293 64.4455 36.0867 65.0856 35.5957ZM68.1064 30.6208C68.3136 30.9268 68.7677 30.9004 69.0964 30.9188C69.2149 30.9256 69.3335 30.9314 69.452 30.9389C69.5383 30.9443 69.64 30.943 69.7156 30.9898C69.8829 31.094 69.8556 31.3848 69.9483 31.5377C69.945 31.582 69.9575 31.5956 69.9852 31.5774L69.9514 31.603C69.9096 31.6397 69.8562 31.668 69.8075 31.6945C69.7331 31.7347 69.6549 31.7688 69.575 31.7973C69.387 31.8639 69.1826 31.8962 68.9828 31.9041C68.5707 31.9213 68.1602 31.8364 67.7588 31.7462C67.8804 31.5126 67.9119 31.2453 67.7288 31.013C67.7136 30.994 67.6952 30.9769 67.6754 30.9612C67.8719 30.8932 68.008 30.7724 68.1064 30.6208ZM69.8855 40.2288C69.6994 40.1949 69.4937 40.2148 69.3109 40.2285C69.1901 40.2375 69.0694 40.2531 68.9497 40.2749C68.8341 40.2958 68.7032 40.3402 68.5851 40.3172C68.4124 40.2832 68.359 40.0748 68.3024 39.9279C68.233 39.7475 68.1466 39.5876 68.0059 39.4564C67.7153 39.1861 67.2873 39.1125 66.9282 39.2823C66.7613 39.3608 66.6111 39.4883 66.5067 39.6443C66.4028 39.7986 66.3805 39.9915 66.2819 40.145C66.1856 40.2949 65.8836 40.2189 65.7377 40.1925C65.6493 40.1762 65.5594 40.1497 65.4832 40.1006C65.4146 40.0569 65.3665 39.9901 65.3075 39.9353C65.5483 39.7826 65.6444 39.475 65.6666 39.1779C65.6946 38.803 65.6734 38.4247 65.6096 38.0551C65.7725 38.1135 65.9441 38.1378 66.121 38.1579C66.3955 38.1894 66.6704 38.2141 66.947 38.1937C67.3216 38.1657 67.7034 38.0261 67.9693 37.7498C68.2211 38.0791 68.7495 38.0968 69.1843 38.0108C69.3192 38.1434 69.4661 38.2544 69.6283 38.3453C69.58 38.4148 69.5368 38.4886 69.5001 38.5658C69.2224 39.148 69.403 39.8356 69.8855 40.2288ZM62.3394 47.0142C62.238 48.0449 62.1342 49.1323 61.6773 50.0445C61.4777 50.4421 61.2205 50.7752 60.9073 51.0296C60.6123 51.2692 60.2899 51.4463 59.9782 51.6441C59.6756 51.8356 59.3768 52.0501 59.1249 52.3407C58.7226 51.4471 58.5886 50.3324 58.7892 49.2976C58.8972 48.7396 59.1319 48.2809 59.5218 47.9681C59.7123 47.8158 59.9158 47.6896 60.1159 47.5602C60.3299 47.4222 60.5459 47.2883 60.7671 47.1706C61.2454 46.9154 61.7524 46.7432 62.2626 46.8168C62.2654 46.8172 62.2681 46.8173 62.271 46.8175C62.2749 46.8267 62.2785 46.8356 62.283 46.8449C62.3024 46.8853 62.3261 46.9231 62.3527 46.9586C62.3462 46.9749 62.3414 46.9934 62.3394 47.0142ZM63.96 26.7085C63.7743 26.6445 63.5631 26.6392 63.3639 26.6082C63.0334 26.5565 62.7007 26.4554 62.438 26.2528C62.2196 26.0845 62.0498 25.8327 62.0384 25.5648C62.0256 25.2702 62.2006 25.0059 62.3733 24.7693C62.7135 24.9002 63.0644 25.0476 63.3033 25.3164C63.4453 25.4766 63.54 25.6682 63.6418 25.8514C63.7523 26.0507 63.8624 26.2495 63.9732 26.4488C63.9492 26.5328 63.9494 26.6209 63.96 26.7085ZM62.5007 28.0077C62.0604 28.219 61.5003 28.3179 60.9576 28.3336C61.1211 28.1125 61.2157 27.8581 61.4519 27.669C61.758 27.4237 62.2088 27.2769 62.6703 27.2849C62.7377 27.286 62.9274 27.2595 62.9825 27.272C63.1365 27.3069 63.2921 27.3339 63.4493 27.3559C63.1065 27.5489 62.8673 27.8316 62.5007 28.0077ZM68.491 28.7873C68.5912 28.4964 68.7587 28.2417 69.0479 28.078C69.2736 27.9503 69.5326 27.8812 69.7931 27.83L69.7094 28.4748C69.68 28.6998 69.6668 28.9448 69.5521 29.15C69.4362 29.3562 69.2049 29.437 68.9739 29.5031C68.75 29.5671 68.5197 29.6126 68.2891 29.6541C68.3743 29.3643 68.4038 29.0405 68.491 28.7873ZM79.9791 41.0329C79.8867 40.882 79.7593 40.8073 79.6126 40.7141C79.4614 40.6178 79.3215 40.5043 79.1924 40.3809C78.9322 40.1326 78.705 39.8525 78.4491 39.6006C78.3386 39.4914 78.2166 39.3851 78.0856 39.2881C78.2337 39.2817 78.3817 39.2633 78.5285 39.228C79.0564 39.1015 79.4657 38.7952 79.7079 38.3126C79.7695 38.1894 79.8229 38.0624 79.878 37.9362C79.9305 37.8165 80.0211 37.6756 79.9462 37.5481C79.8756 37.4275 79.7318 37.4211 79.6062 37.4002C79.4539 37.3749 79.3015 37.3509 79.1483 37.3316C78.5844 37.2621 77.9796 37.2596 77.4591 37.5145C77.1482 37.6663 76.8747 37.8995 76.7031 38.1909C76.7025 38.1849 76.7019 38.1784 76.7017 38.1719C76.6779 37.8749 76.5896 37.5573 76.3676 37.3439C76.2515 37.2323 76.1165 37.1732 75.9626 37.1305C75.8938 37.1114 75.8108 37.0982 75.7629 37.0412C75.7025 36.9693 75.6947 36.8439 75.6666 36.7572C75.5688 36.4554 75.3415 36.2116 75.0597 36.0663C74.9023 35.9853 74.7251 35.935 74.5474 35.9299C74.3325 35.9244 74.1408 35.9949 73.9341 36.0404C73.6905 36.0942 73.4848 36.018 73.252 35.9531C73.0389 35.8935 72.8197 35.8483 72.5987 35.8356C72.1808 35.8119 71.762 35.8949 71.4192 36.1402C71.1131 36.3593 70.8983 36.6966 70.87 37.0726C70.8695 37.08 70.8695 37.0869 70.8695 37.0935C70.847 37.1252 70.8345 37.1655 70.8385 37.2131C70.8515 37.3657 70.8696 37.555 70.7911 37.695C70.7042 37.8499 70.477 37.8645 70.3293 37.9372C70.2285 37.9871 70.135 38.0489 70.05 38.1202C69.9377 38.068 69.8305 38.0042 69.7317 37.9301C70.094 37.7942 70.4146 37.5121 70.5197 37.1338C70.5993 36.8474 70.5232 36.5926 70.3912 36.3543C70.7544 36.2845 71.0505 35.9968 71.1556 35.6203C71.225 35.3726 71.2273 35.1027 71.1654 34.8528C71.0992 34.5838 70.9664 34.396 70.7837 34.194C70.7044 34.1065 70.751 33.9808 70.7482 33.8704C70.7455 33.7429 70.7269 33.6207 70.6892 33.4985C70.6153 33.2566 70.4802 33.039 70.292 32.8673C70.0934 32.6859 69.8438 32.5743 69.5783 32.5291C69.2987 32.4817 69.0461 32.5386 68.7834 32.6282C68.7623 32.6352 68.7102 32.6623 68.6906 32.6556C68.6851 32.6537 68.6817 32.6528 68.6797 32.6525C68.682 32.6507 68.6829 32.6439 68.6626 32.6174C68.6338 32.5791 68.6295 32.5023 68.6077 32.4563C68.5676 32.3714 68.5104 32.2957 68.4436 32.2294C68.6383 32.2459 68.8338 32.2494 69.031 32.2325C69.2844 32.2113 69.5375 32.1536 69.7717 32.0549C69.9528 31.9789 70.2756 31.8394 70.3296 31.6316C70.3609 31.5124 70.2937 31.3825 70.2578 31.2714C70.2135 31.1361 70.1754 30.9973 70.1241 30.8644C70.0318 30.6259 69.8492 30.4982 69.5977 30.4592C69.3222 30.4161 69.0324 30.4222 68.7541 30.4062C68.5884 30.3968 68.3919 30.3968 68.2571 30.2977C68.518 30.2414 68.7772 30.1788 69.0318 30.0967C69.3406 29.9973 69.6398 29.8576 69.8164 29.5742C69.9815 29.3095 70.03 28.9962 70.0693 28.693C70.1218 28.2858 70.1727 27.8785 70.225 27.4711C70.2391 27.3585 70.1283 27.2577 70.0164 27.2795C69.2594 27.427 68.515 27.6828 68.1456 28.4066C67.9693 28.7521 67.896 29.1389 67.823 29.5153C67.7581 29.8504 67.6974 30.38 67.3002 30.4947C67.2229 30.5169 67.1804 30.5751 67.1673 30.6382C67.1358 30.6026 67.1138 30.5614 67.1107 30.5089C67.0988 30.3235 67.1692 30.1397 67.165 29.9532C67.1567 29.5536 66.8494 29.2808 66.5022 29.1287C66.1624 28.9799 65.7137 28.8931 65.3611 29.0496C65.3511 29.021 65.3466 28.985 65.3384 28.9535C65.3147 28.8603 65.2892 28.7693 65.2318 28.69C65.1766 28.6142 65.1056 28.558 65.0259 28.5161C65.0242 28.4975 65.0198 28.4778 65.0111 28.4576C65.0076 28.4489 65.0041 28.4403 65.0006 28.4317C65.1046 28.4139 65.2125 28.4296 65.3233 28.4445C65.4998 28.4684 65.6808 28.494 65.8573 28.456C66.1899 28.3844 66.4256 28.1407 66.7206 27.9936C67.0559 27.8266 67.462 27.8734 67.7506 27.6035C67.8762 27.4857 67.948 27.3325 67.9517 27.1608C67.9536 27.0708 67.9342 26.9801 67.9431 26.89C67.9541 26.7766 68.0092 26.6736 68.0439 26.5665C68.155 26.224 68.0467 25.9013 67.7236 25.7227C67.6766 25.6969 67.6287 25.6765 67.5802 25.6605C67.8541 25.4631 68.0426 25.1496 68.0336 24.8069C68.0276 24.5694 67.9245 24.3204 67.8063 24.1155C67.6939 23.9208 67.5211 23.8034 67.3023 23.7515C67.2669 23.7431 67.2283 23.7347 67.1877 23.7266C67.3372 23.5631 67.4803 23.3942 67.6134 23.2164C67.7887 22.9827 67.8949 22.7689 67.8282 22.4726C67.7984 22.3404 67.7526 22.2096 67.7068 22.082C67.6674 21.9731 67.6338 21.8369 67.5407 21.7592C67.4334 21.6693 67.3052 21.709 67.1843 21.7434C67.0718 21.7754 66.9601 21.8094 66.8484 21.8443C66.8598 21.4281 67.0052 21.0244 67.2579 20.6893C67.4048 20.4943 67.5694 20.3147 67.7047 20.1109C67.8403 19.9068 67.9583 19.688 68.0509 19.4618C68.2146 19.0615 68.284 18.503 67.9005 18.194C67.6906 18.0248 67.5119 18.1732 67.3552 18.3297C67.1948 18.4907 67.0536 18.6661 66.9448 18.8659C66.7045 19.3065 66.6505 19.8555 66.9082 20.3018C66.9397 20.3563 66.9877 20.3843 67.0384 20.3923C66.9721 20.4749 66.908 20.5593 66.8515 20.6494C66.6027 21.0467 66.486 21.4979 66.4942 21.961C66.0951 22.1063 65.6737 22.3294 65.6224 22.7781C65.5931 23.0343 65.7399 23.2321 65.9399 23.3769C66.143 23.5242 66.3567 23.6594 66.5674 23.797C66.5221 23.8372 66.4865 23.8886 66.4638 23.9439C66.4336 24.017 66.4437 24.1534 66.3936 24.2123C66.3489 24.265 66.2174 24.2259 66.1491 24.2278C66.0393 24.2308 65.9329 24.2592 65.8374 24.3132C65.6467 24.421 65.5148 24.613 65.4994 24.8324C65.4816 25.0875 65.6054 25.3023 65.8074 25.4533C65.9829 25.5841 66.1726 25.7004 66.3613 25.816C66.2944 25.8451 66.2301 25.8798 66.1715 25.9256C66.116 25.9689 66.0697 26.0223 66.026 26.0768C65.9578 26.1628 65.9382 26.2 65.8222 26.1846C65.4414 26.1347 65.0321 26.095 64.6647 26.2391C64.5992 26.2647 64.5368 26.299 64.4804 26.3408L64.1263 25.6577C63.9929 25.4005 63.8617 25.1346 63.6682 24.9152C63.2995 24.4983 62.7717 24.2782 62.264 24.0754C62.192 24.0466 62.0991 24.0734 62.0548 24.1368C61.794 24.5108 61.5198 24.9178 61.4879 25.3848C61.4602 25.7935 61.6272 26.1922 61.8992 26.495C62.029 26.6395 62.1796 26.7608 62.3439 26.861C61.9721 26.9327 61.6229 27.1002 61.3383 27.3564C61.1485 27.5273 60.9966 27.7278 60.8811 27.954C60.7595 28.1921 60.6842 28.4696 60.4858 28.6597C60.3856 28.7558 60.4134 28.9703 60.5819 28.9727C61.265 28.9823 61.9772 28.843 62.5764 28.5078C62.8405 28.3601 63.0492 28.1604 63.2552 27.943C63.4531 27.7337 63.6514 27.5175 63.918 27.3931C63.9609 27.373 63.9882 27.3435 64.0035 27.31C64.1091 27.332 64.2084 27.37 64.2826 27.4474C64.2943 27.4596 64.3064 27.4692 64.3194 27.4774C64.3919 27.7904 64.4874 28.0978 64.6028 28.398C64.1467 28.3328 63.6493 28.3721 63.2014 28.4373C62.9895 28.4682 62.708 28.485 62.5342 28.6229C62.3342 28.782 62.3901 29.0234 62.4242 29.2426C62.4439 29.371 62.464 29.4993 62.4841 29.6279C62.4947 29.6972 62.5674 29.927 62.5208 29.9901C62.4779 30.0477 62.3314 30.0307 62.264 30.0379C62.1615 30.049 62.059 30.078 61.9641 30.1179C61.5432 30.2949 61.2395 30.7338 61.2483 31.1883C61.2489 31.2125 61.2535 31.2343 61.2611 31.254C61.2449 31.2833 61.2363 31.3185 61.2402 31.3591C61.2658 31.6374 61.4316 31.8758 61.6499 32.0453C61.769 32.1379 61.9062 32.2092 62.0437 32.271C62.1749 32.3299 62.3579 32.3686 62.45 32.4859C62.5311 32.5894 62.5478 32.7438 62.5929 32.8636C62.6445 33.0007 62.7144 33.1316 62.8024 33.2487C62.9703 33.4724 63.2182 33.6326 63.4955 33.6741C63.3194 34.0232 63.3009 34.4487 63.4229 34.8169C63.5845 35.3051 63.9817 35.562 64.4282 35.7458C63.9334 36.4125 64.4646 37.3926 65.0891 37.8619C65.08 37.8884 65.0778 37.9193 65.0856 37.9547C65.1605 38.2908 65.2011 38.633 65.1942 38.9774C65.1894 39.2186 65.2025 39.6752 64.8906 39.743C64.7945 39.7636 64.7508 39.8398 64.7497 39.916C64.6574 39.9378 64.5677 39.9811 64.4869 40.0314C64.2628 40.172 64.0496 40.3333 63.8326 40.4848C63.4013 40.7856 62.9416 41.0665 62.5329 41.3961C62.1438 41.7098 62.1227 42.1803 62.2282 42.6337C62.2817 42.8629 62.3629 43.0991 62.3518 43.3368C62.3455 43.4663 62.3114 43.5039 62.1882 43.539C62.069 43.573 61.9491 43.6035 61.8337 43.6492C61.4357 43.8059 61.0604 44.1909 61.1823 44.6483C61.2825 45.0243 61.6689 45.2162 62.0115 45.332C62.2924 45.4267 62.7957 45.5447 62.8054 45.9141C62.8082 46.0086 62.7957 46.0989 62.7881 46.1873C62.0789 46.109 61.3754 46.2554 60.7091 46.4966C60.0283 46.7426 59.3487 47.0634 58.7221 47.4247C58.4181 47.6 58.1341 47.8057 57.9132 48.0802C57.7015 48.3432 57.5545 48.6568 57.4582 48.978C57.2574 49.6489 57.2303 50.3758 57.3296 51.0661C57.4417 51.848 57.7308 52.5924 58.1644 53.2542C58.2128 53.328 58.3547 53.342 58.4161 53.2784C59.1467 52.5245 60.2049 52.2641 61.0827 51.7295C62.0807 51.1215 62.6768 50.1374 62.9675 49.0303C62.972 49.0136 62.9761 48.9967 62.9803 48.9799C63.1792 49.4965 63.5546 49.951 63.995 50.2959C64.8348 50.9524 65.9073 51.2162 66.8902 51.5862C67.0078 51.6306 67.1682 51.525 67.1306 51.3909C66.8039 50.2246 67.143 48.9353 66.6292 47.817C67.0142 47.8411 67.418 47.7652 67.7401 47.5637C68.0544 47.3666 68.2774 47.0373 68.316 46.6771C68.7097 46.8069 69.1352 46.8673 69.5378 46.7542C69.9445 46.6399 70.294 46.3789 70.4566 45.9854C70.5317 45.8034 70.5634 45.609 70.6118 45.4194C70.6402 45.531 70.689 45.6392 70.7604 45.7399C70.9733 46.0391 71.3404 46.1698 71.6931 46.1268C71.7225 46.2863 71.7821 46.44 71.8687 46.5765C70.7866 46.7753 69.582 47.0546 68.9912 48.0742C68.6829 48.6064 68.5624 49.2166 68.4993 49.8204C68.4313 50.4711 68.4335 51.1134 68.66 51.7353C68.8905 52.3677 69.2856 52.9406 69.3987 53.6125C69.4232 53.7582 69.6343 53.8147 69.7199 53.6861C70.0503 53.1903 70.3931 52.6863 70.9407 52.4066C71.4418 52.1504 72.0034 52.0318 72.4767 51.7188C73.4104 51.1007 73.6007 49.8852 73.6616 48.8596C73.6973 48.2583 73.6861 47.622 73.4019 47.0772C73.6377 47.4292 73.9652 47.6989 74.337 47.8687C74.3331 47.8791 74.3297 47.8898 74.3275 47.9016C73.987 49.628 75.322 51.1665 76.9281 51.6342C77.4267 51.7794 77.9399 51.8303 78.4576 51.7951C78.5308 51.7902 78.6033 51.7091 78.6054 51.6377C78.6282 50.7658 78.6373 49.8382 78.1522 49.0725C77.7603 48.4536 77.1378 48.0434 76.4947 47.7067C76.6216 47.6236 76.7402 47.5282 76.8458 47.4212C76.9396 47.3257 77.0148 47.1929 77.118 47.1098C77.2231 47.0251 77.4179 47.0581 77.5468 47.048C78.1405 47.0007 78.7574 46.7796 79.0635 46.2394C79.2216 45.9597 79.2597 45.6412 79.1578 45.3356C79.0894 45.1306 78.9695 44.9509 78.8322 44.7843C79.1746 44.7057 79.4766 44.4637 79.6216 44.1412C79.8278 43.6829 79.6191 43.1409 79.2177 42.8601C79.0114 42.716 78.7904 42.6731 78.5431 42.6664C78.4089 42.6629 78.3364 42.6656 78.3074 42.5253C78.2804 42.3942 78.2428 42.2646 78.1884 42.1417C77.9918 41.6969 77.6065 41.333 77.1496 41.1575C76.7407 41.0008 76.1988 40.9917 75.8901 41.3112C75.5321 41.0041 75.1358 40.7204 74.6845 40.6007C74.8936 40.5559 75.0963 40.4802 75.2827 40.3751C75.5554 40.2217 75.9182 39.9692 76.017 39.6579C76.0225 39.6409 76.0358 39.5306 76.0306 39.4564C76.0473 39.4561 76.0654 39.4539 76.0819 39.4518C76.0722 39.4961 76.0785 39.5447 76.1083 39.5912C76.3252 39.9263 76.5262 40.2811 76.7724 40.5959C76.9889 40.8719 77.2743 41.0632 77.6117 41.1647C77.9519 41.2672 78.3107 41.2994 78.663 41.3325C79.0581 41.3694 79.4602 41.3827 79.8471 41.2815C79.9462 41.2556 80.0441 41.1394 79.9791 41.0329Z" fill="#614930"/>
<path d="M66.5662 34.2766C66.679 34.1343 66.8255 34.1002 66.9603 34.0794C67.2508 34.0344 67.5647 34.011 67.8295 34.1758C67.9553 34.2541 68.0882 34.3882 68.1343 34.5947C68.1724 34.7629 68.1188 34.991 67.9864 35.0142C67.9446 35.0217 67.9184 35.0578 67.9064 35.1033C67.6444 35.3004 67.3579 35.4932 67.0771 35.5439C66.9257 35.5713 66.7803 35.5282 66.6782 35.3635C66.5869 35.2165 66.5092 35.0248 66.471 34.8252C66.434 34.6305 66.4514 34.421 66.5662 34.2766ZM66.74 35.9033C67.0861 36.0314 67.4726 35.9799 67.8198 35.8854C68.2232 35.7754 68.6164 35.6242 68.9946 35.4475C69.0171 35.4371 69.0354 35.4238 69.05 35.4087C69.2529 35.3408 69.405 35.1574 69.4588 34.9511C69.5334 34.6662 69.409 34.3771 69.2095 34.1717C68.7427 33.6906 68.0186 33.6036 67.3794 33.6137C66.7999 33.6228 65.9704 33.6636 65.821 34.3635C65.7541 34.677 65.8805 34.9934 66.0462 35.2559C66.2159 35.5253 66.4306 35.7887 66.74 35.9033Z" fill="#614930"/>
<path d="M74.0577 38.7825C73.9032 38.7017 73.7222 38.6943 73.5516 38.6894C73.3587 38.6836 73.1641 38.6894 72.9791 38.7478C72.6434 38.8545 72.424 39.1471 72.4255 39.4973C72.4268 39.8549 72.7264 40.346 73.1518 40.2206C73.1686 40.2157 73.1834 40.209 73.1965 40.201C73.5622 40.1763 74.0387 40.1072 74.211 39.7786C74.3666 39.4816 74.3981 38.9607 74.0577 38.7825Z" fill="#614930"/>
<path d="M74.1779 44.61C74.2013 44.5028 74.2485 44.3877 74.3466 44.3287C74.4468 44.2693 74.6117 44.2874 74.7198 44.3141C74.9416 44.3689 75.0944 44.6365 75.0797 44.8572C75.0715 44.9761 74.9901 45.0275 74.884 45.0599C74.7456 45.1015 74.5985 45.1177 74.4544 45.1143C74.4125 45.1135 74.3803 45.1312 74.3592 45.1569C74.0963 45.2051 74.1469 44.7539 74.1779 44.61ZM73.816 44.5654C73.7951 44.8066 73.8131 45.0681 73.9646 45.2687C74.1036 45.4528 74.3416 45.5618 74.5714 45.5054C74.6122 45.4951 74.6433 45.4755 74.6659 45.4498C75.058 45.4531 75.6128 45.4048 75.8398 45.0589C76.0746 44.7011 75.8937 44.1732 75.6462 43.867C75.3736 43.5297 74.8221 43.398 74.411 43.5391C73.9811 43.6868 73.8504 44.1635 73.816 44.5654Z" fill="#614930"/>
<path d="M71.8303 29.3479C71.843 29.2082 71.8278 28.8888 71.9737 28.8551C72.1199 28.8212 72.2448 28.966 72.3566 29.0535C72.5007 29.1665 72.638 29.2037 72.8079 29.2165C72.9398 29.2265 73.061 29.2708 73.0289 29.4735C72.9992 29.659 72.8722 29.7615 72.7421 29.823C72.5651 29.9071 72.3728 29.9351 72.1906 29.9905C72.0683 30.0274 71.9467 30.0702 71.8273 30.1223C71.8273 30.1031 71.8273 30.0842 71.8268 30.065C71.8185 29.8228 71.8083 29.5919 71.8303 29.3479ZM71.6541 32.0133C71.7156 31.9478 71.8095 31.9275 71.8891 31.914C72.1139 31.8755 72.3489 31.8919 72.5699 31.9381C72.7747 31.9808 72.9567 32.0406 73.1415 31.8835C73.2949 31.7531 73.3992 31.607 73.5947 31.554C73.7688 31.5067 73.9554 31.5257 74.1088 31.6267C74.1792 31.6732 74.2416 31.734 74.2939 31.8047C74.301 31.8575 74.3278 31.9069 74.3712 31.9311C74.3926 31.9749 74.4107 32.021 74.4246 32.0686C74.483 32.2682 74.436 32.4847 74.4903 32.6846C74.5457 32.8878 74.6901 32.9995 74.8571 33.078C74.9323 33.1136 75.245 33.2246 75.1564 33.3732C75.1252 33.4255 75.0391 33.4506 74.9913 33.4749C74.9265 33.5076 74.8605 33.5426 74.8047 33.5931C74.6751 33.7107 74.6307 33.8931 74.6663 34.0698C74.6956 34.2161 74.8235 34.4281 74.7191 34.5687C74.6029 34.7258 74.3563 34.7537 74.1919 34.7652C73.9654 34.7809 73.7624 34.7178 73.5451 34.6669C73.3257 34.6155 73.1621 34.6961 72.9596 34.7862C72.5944 34.9489 72.0833 34.9472 71.8212 34.584C71.6217 34.3076 71.6049 33.8363 71.8757 33.5981C71.9539 33.5291 71.9437 33.3979 71.8718 33.3348C71.7805 33.2552 71.6889 33.1752 71.5976 33.0957C71.5904 32.8372 71.5759 32.5777 71.5769 32.3188C71.5774 32.2122 71.58 32.0923 71.6541 32.0133ZM75.0769 32.319C75.5986 32.2027 76.2236 32.0584 76.7009 32.3818C77.0708 32.6329 77.2555 33.0952 77.4 33.5416C77.0828 33.6663 76.7594 33.8078 76.4302 33.8608C76.167 33.9029 75.8554 33.8425 75.7113 33.5791C75.8027 33.4662 75.845 33.3168 75.7958 33.1569C75.7165 32.9003 75.4947 32.8043 75.2903 32.7083C75.1956 32.6638 75.1068 32.6128 75.0795 32.4927C75.0666 32.4373 75.0631 32.3796 75.0619 32.3215C75.0666 32.3209 75.0716 32.32 75.0769 32.319ZM75.1606 30.2063C75.1718 29.9401 75.1906 29.5639 75.3736 29.3547C75.4645 29.2512 75.6009 29.2022 75.7243 29.1599C75.8712 29.1096 76.0198 29.0638 76.1673 29.0158C76.4317 28.9295 76.6965 28.8438 76.961 28.7576C76.9492 29.0225 76.9206 29.2862 76.8727 29.5472C76.8152 29.8613 76.7418 30.2011 76.5663 30.4695C76.2759 30.9139 75.7646 31.0613 75.2793 31.1518C75.1917 30.8456 75.1471 30.5272 75.1606 30.2063ZM70.8664 32.4995C70.8752 32.6962 70.8839 32.8927 70.8929 33.0892C70.8949 33.1415 70.916 33.1785 70.9466 33.2016C70.9566 33.2325 70.9759 33.262 71.0081 33.2865C71.0745 33.3374 71.1406 33.3885 71.207 33.4394C70.9707 33.7349 70.9415 34.1526 71.0742 34.5093C71.2498 34.9821 71.7279 35.254 72.2195 35.292C72.4952 35.3139 72.7708 35.2702 73.0305 35.1789C73.1569 35.1344 73.2812 35.055 73.4185 35.0514C73.5725 35.0474 73.7267 35.1144 73.8761 35.1458C74.3372 35.2427 75.1718 35.2461 75.4109 34.7379C75.5274 34.4907 75.3968 34.2809 75.3371 34.0424C75.2998 33.8947 75.4049 33.8379 75.5212 33.7903C75.7284 34.1175 76.1256 34.2725 76.5115 34.2636C77.0432 34.2514 77.5718 34.0191 78.072 33.8605C78.1694 33.8296 78.1892 33.7065 78.1597 33.6258C77.9475 33.0462 77.6796 32.4169 77.1131 32.095C76.4782 31.734 75.7186 31.8434 75.0327 31.9698C75.0187 31.9092 75.0002 31.8493 74.9764 31.7907C75.6453 31.6769 76.3376 31.489 76.76 30.9265C77.002 30.6041 77.1056 30.2019 77.1881 29.8155C77.278 29.3945 77.3207 28.966 77.3209 28.536C77.3212 28.4352 77.2343 28.3077 77.1124 28.3443C76.6786 28.4746 76.245 28.605 75.8115 28.7352C75.4559 28.8422 75.0318 28.9144 74.7793 29.2092C74.5377 29.4914 74.4866 29.9287 74.4674 30.2836C74.4495 30.6108 74.4783 30.9382 74.5522 31.2564C74.1891 31.0002 73.7023 30.9538 73.2924 31.16C73.1573 31.2281 73.0512 31.3218 72.9405 31.4219C72.7986 31.55 72.6716 31.497 72.4987 31.4601C72.1608 31.3882 71.7768 31.3584 71.4358 31.4311C71.3984 31.4391 71.3618 31.4491 71.327 31.4609C71.4771 31.1938 71.6072 30.9263 71.6663 30.6369C71.9044 30.5504 72.1502 30.4915 72.3998 30.4423C72.6649 30.3895 72.9417 30.3578 73.193 30.2529C73.4135 30.1605 73.6082 30.0013 73.6903 29.7728C73.7636 29.5692 73.7519 29.3259 73.6073 29.1548C73.4246 28.9387 73.1517 28.9681 72.8995 28.9287C72.8407 28.9194 72.7858 28.9011 72.7334 28.878C72.7935 28.7432 72.8052 28.5981 72.7895 28.4514C72.8158 28.4413 72.8412 28.4244 72.8631 28.3993C73.0339 28.2054 73.2474 28.1561 73.472 28.0535C73.6736 27.9611 73.8252 27.7939 73.8864 27.5817C73.9441 27.3801 73.926 27.1126 73.747 26.9738C73.6515 26.8997 73.5245 26.8601 73.3937 26.835C73.4007 26.8256 73.4073 26.8155 73.4128 26.804C73.5483 26.5377 73.5855 26.2369 73.5474 25.9427C73.536 25.8533 73.5151 25.7658 73.4902 25.6798C73.8781 25.577 74.3104 25.4106 74.399 24.9745C74.4462 24.7429 74.3787 24.4998 74.3386 24.2719C74.3194 24.1627 74.3 24.0539 74.2809 23.9448C74.2637 23.8491 74.2486 23.7495 74.1537 23.6988C74.0101 23.6219 73.7878 23.749 73.6552 23.8094C73.4837 23.8878 73.316 23.9882 73.1828 24.1223C72.8851 24.4224 72.8467 24.817 72.9609 25.2088C73.0312 25.4492 73.1391 25.6798 73.1831 25.9271C73.2295 26.1863 73.1987 26.4415 73.0791 26.6774C73.0578 26.7187 73.0553 26.7564 73.0646 26.7893C73.0576 26.7884 73.0505 26.7876 73.0436 26.7867C72.8413 26.76 72.5872 26.7077 72.3981 26.8118C72.1913 26.9253 72.1797 27.2115 72.1825 27.4179C72.1865 27.6844 72.2692 27.9196 72.3576 28.168C72.4172 28.3348 72.472 28.5236 72.4192 28.6904C72.3518 28.6474 72.283 28.6071 72.2086 28.5784C71.9945 28.4964 71.7206 28.4892 71.5398 28.6479C71.3337 28.8286 71.3407 29.1526 71.3204 29.4021C71.3063 29.5732 71.3019 29.7447 71.3131 29.916C71.3228 30.0721 71.3519 30.2278 71.3462 30.3849C71.2504 30.4426 71.1062 31.1357 70.9725 31.3663C70.9487 31.4069 70.9426 31.4477 70.9484 31.4857C70.856 31.549 70.8588 32.332 70.8664 32.4995Z" fill="#614930"/>
<path d="M31.5632 3.69978C31.5632 3.69978 32.304 2.3229 33.4332 3.54919C33.4833 3.70551 33.5445 3.86253 32.9772 4.93031C32.41 5.99836 32.6091 6.21919 32.6091 6.35153C37.4079 6.29919 37.3249 8.39123 38.4343 9.10775C39.5441 9.82441 40.3368 11.3574 40.3368 11.3574C40.3368 11.3574 39.4469 9.96757 38.49 9.35135C38.4351 9.44323 38.2519 9.39613 38.1971 9.33544C36.3539 6.2276 33.0045 7.17315 33.0045 7.17315C33.0045 7.17315 32.11 6.32239 32.6508 5.18876C33.1916 4.0552 33.6097 4.00859 33.0851 3.35191C32.5607 2.69545 31.5632 3.69978 31.5632 3.69978Z" fill="#614930"/>
<path d="M32.6738 8.33398C32.6738 8.33398 35.2295 8.87756 37.1599 10.3148C39.0902 11.7524 39.3775 10.8382 39.974 11.2312C39.3502 11.9632 40.232 12.8335 40.232 12.8335C38.6996 11.25 39.0156 11.789 38.8705 11.7932C34.5578 8.77118 32.6738 8.33398 32.6738 8.33398Z" fill="#614930"/>
<path d="M31.937 4.66568C32.0075 4.54671 31.9121 4.35248 31.7225 4.32199C31.5495 4.29398 31.6435 4.20217 31.555 4.13427C31.4674 4.06686 29.5786 6.35958 29.48 6.67427C30.0517 6.02579 31.7957 4.90419 31.937 4.66568Z" fill="#614930"/>
<path d="M32.5832 4.36938C32.273 4.73868 32.1073 5.16901 31.9403 5.59984C31.9091 5.67977 31.8143 5.83015 31.8143 5.83015C31.8494 5.48533 31.4869 6.18027 31.4869 6.18027C31.4869 6.18027 31.5376 5.86544 31.6002 5.71075C31.6628 5.55634 32.1509 4.76478 32.1509 4.76478C32.1509 4.76478 32.3491 4.58278 31.8562 4.80467C31.894 4.76732 32.3373 4.575 32.3773 4.53943C32.4435 4.48079 32.5124 4.42427 32.5832 4.36938Z" fill="#614930"/>
<path d="M32.2281 3.96264C32.1644 4.01823 32.0819 4.09434 32.0521 4.03203C32.0037 3.92982 32.062 3.80087 32.1728 3.68593C32.245 3.61081 32.33 3.58563 32.3625 3.64661C32.4195 3.75369 32.3059 3.86354 32.2281 3.96264Z" fill="#614930"/>
<path d="M36.0536 11.006C36.0536 11.006 37.154 11.826 37.6202 11.8517C38.0866 11.8773 38.0217 12.0537 38.1596 12.0696C38.1516 11.8782 38.3901 11.8572 38.3901 11.8572C37.9669 11.9046 38.551 11.3007 38.5292 11.2818C37.5749 12.1395 36.0536 11.006 36.0536 11.006Z" fill="#614930"/>
<path d="M64.4677 54.0393C55.0833 54.067 45.699 54.4266 36.316 54.296C33.659 54.2592 31.0021 53.8058 28.3453 53.7563C27.3822 53.7385 27.3824 54.9247 28.3453 54.9427C37.727 55.1174 47.111 54.4781 56.4952 54.4946C59.1525 54.4994 61.8102 55.2334 64.4677 55.2257C65.4303 55.2229 65.4322 54.0364 64.4677 54.0393Z" fill="#614930"/>
<path d="M62.4404 53.5062C54.3379 52.1083 45.7807 53.2358 37.5251 53.4668C35.1046 53.5343 32.6842 53.0567 30.2635 53.1241C29.2988 53.1512 29.2937 54.1657 30.2635 54.1385C34.4892 54.0204 38.7149 53.9022 42.9404 53.784C46.9914 53.6707 51.0551 53.5502 55.105 53.7465C57.4461 53.86 59.7654 54.0918 62.0403 54.4842C62.9788 54.6463 63.3793 53.6682 62.4404 53.5062Z" fill="#614930"/>
<path d="M54.5926 51.9244C51.2208 52.0532 48.2051 51.5724 45.0241 51.4898C43.3311 51.4461 41.7265 51.3997 40.0556 51.5392C38.2482 51.6901 36.4327 51.7977 34.6138 51.8742C33.5231 51.9203 33.5008 53.0502 34.601 53.0039C36.3035 52.932 38.0015 52.8301 39.6948 52.6983C41.3814 52.5664 43.035 52.3577 44.7415 52.3982C47.846 52.4711 51.1955 52.1576 54.1255 53.0085C54.5529 53.1324 55.0636 52.8903 55.1821 52.6257C55.3273 52.3023 55.0147 52.047 54.5926 51.9244Z" fill="#614930"/>
<path d="M39.3272 54.1584C39.07 53.2432 38.9933 52.1815 39.1555 51.1317C39.2054 50.8098 39.1576 50.4872 38.9706 50.3753C38.8166 50.2832 38.5672 50.4451 38.5179 50.7645C38.3055 52.1383 38.3486 53.5062 38.6903 54.7226C38.8782 55.3908 39.5164 54.8314 39.3272 54.1584Z" fill="#614930"/>
<path d="M51.0487 51.1832C51.3789 52.064 51.5361 53.1018 51.4481 54.1433C51.4211 54.4633 51.4936 54.7769 51.6927 54.8736C51.8569 54.9536 52.0995 54.7769 52.1265 54.4599C52.2419 53.0962 52.0967 51.7557 51.6574 50.5852C51.416 49.9422 50.8057 50.5357 51.0487 51.1832Z" fill="#614930"/>
<path d="M65.2426 35.7357C65.0558 35.3783 59.2172 26.9372 59.1094 26.5014C54.6271 17.4144 45.9786 12.248 40.1764 11.0916L40.4004 11.5858L40.3424 11.5812C49.8172 13.7239 58.8165 29.9353 63.2255 34.4784C65.3467 36.1577 64.3693 41.2635 60.7593 40.0087C61.9176 38.6991 61.1106 37.3091 58.9509 37.1746C58.6033 37.9668 31.8847 41.5596 24.4838 40.701C25.1449 41.2674 25.6003 42.088 26.0765 42.8421C30.8333 42.6442 36.6495 41.9124 42.8747 40.9256C65.6357 37.2416 55.6695 41.1715 59.4252 41.059C67.4436 40.3231 67.5229 37.9916 65.2426 35.7357Z" fill="#614930"/>
<path d="M25.3958 42.9948C24.3461 43.3084 23.334 43.8103 22.2289 43.8944C21.8386 43.9237 21.4417 43.9031 21.0654 43.8009C21.0369 43.7639 20.836 43.7284 20.7783 43.7052C20.2705 43.5007 19.8872 43.0989 19.4499 42.7887C18.9859 42.4596 18.4783 42.1932 17.9441 41.99C18.1828 41.7149 18.3836 41.4137 18.4838 41.0591C18.5884 40.6886 18.6102 40.2962 18.6233 39.9098C19.9367 40.0427 22.6018 40.1016 22.6672 40.1173C24.0706 40.4521 24.6439 41.9325 25.3958 42.9948ZM26.0151 47.0833C26.1067 47.6042 26.1614 48.1355 26.1241 48.6629C25.7468 48.2171 25.1221 48.0239 24.5826 47.8709C23.9633 47.6957 23.3199 47.6003 22.6779 47.589C22.3516 47.5833 22.0258 47.6009 21.702 47.6375C21.7439 46.8538 21.8907 46.0702 21.8055 45.2843C21.7804 45.0536 21.7331 44.8284 21.6608 44.6092C22.4442 44.7846 23.2808 44.631 24.036 44.3908C24.0856 44.3748 24.1352 44.3586 24.1846 44.3422C24.1977 44.3659 24.22 44.3856 24.2542 44.3948C25.4277 44.7124 25.8285 46.0209 26.0151 47.0833ZM25.8593 50.8497C25.7132 51.2362 25.5795 52.056 25.561 52.056C25.5583 52.0487 25.5546 52.041 25.5493 52.0334C25.2175 51.5406 24.8861 51.0473 24.5537 50.5552C24.2596 50.1193 23.9532 49.6816 23.5364 49.3634C23.3241 49.2013 23.0855 49.0759 22.8311 49.0106C22.8181 49.0073 22.8058 49.0068 22.7945 49.0082C22.7928 48.9447 22.7924 48.8808 22.7932 48.8171C23.7051 48.7114 24.6622 48.8406 25.5219 49.2112C25.7483 49.3088 25.9643 49.438 26.1188 49.6419C26.1441 49.6752 26.0045 50.4655 25.8593 50.8497ZM21.5222 53.063C21.197 53.0653 20.6391 52.9233 20.6031 52.8536C20.0944 51.8707 20.0826 50.6626 20.5803 49.6602C20.5889 49.643 20.5929 49.626 20.5937 49.6097C20.8875 49.6579 21.1756 49.7319 21.4448 49.8558C21.5429 49.901 21.6472 49.8309 21.63 49.7252C21.6091 49.5979 21.596 49.4703 21.5883 49.343C22.1742 49.4807 22.6532 49.8479 23.0434 50.2771C23.5037 50.7833 23.8778 51.365 24.2742 51.9181C24.493 52.2232 24.7118 52.5286 24.9306 52.8339C23.7928 52.8689 22.6616 53.055 21.5222 53.063ZM17.8457 51.7429C17.4477 51.3692 16.8862 50.2229 16.8422 50.2248C16.7625 49.4281 16.5173 48.6342 16.1456 47.9256C16.1262 47.8883 16.1062 47.8516 16.0861 47.815C16.4245 48.1433 16.7975 48.4176 17.1925 48.6294C17.5009 48.7948 17.8216 48.9186 18.1472 48.9985C18.4887 49.0824 18.8323 49.1225 19.1753 49.1803C19.2556 49.1941 19.336 49.2088 19.4166 49.2257C19.047 50.2758 19.1154 51.5433 19.6093 52.6212C19.6146 52.6327 19.6208 52.6427 19.6275 52.651C18.9941 52.5128 18.3763 52.2408 17.8457 51.7429ZM16.1643 51.4072C16.1185 51.6494 16.0508 51.8854 15.9621 52.1105C15.6638 51.2918 14.9773 50.7623 14.3253 50.2818C14.3206 50.2785 14.316 50.2755 14.3114 50.2731C14.593 50.0079 14.896 49.7444 15.0875 49.3927C15.2937 49.0133 15.3169 48.5447 15.3502 48.1079C15.3549 48.0432 15.3591 47.9782 15.3617 47.913C16.0378 48.9244 16.392 50.2055 16.1643 51.4072ZM15.2922 53.3014C15.0972 53.5327 14.8698 53.7421 14.6216 53.9246C14.3616 54.1155 14.0798 54.2789 13.8178 54.4676C13.6869 54.5621 13.5606 54.6631 13.4475 54.776C13.3952 54.8282 13.234 54.9072 13.1508 54.8589C12.5331 54.5016 12.2421 53.8479 12.1035 53.2055C12.0256 52.8437 11.9844 52.4739 11.943 52.1061C11.9183 51.8864 11.8996 51.6632 11.9088 51.4409C12.0143 51.5645 12.1205 51.6878 12.2267 51.8107C12.2689 51.8595 12.3549 51.8494 12.402 51.8107C12.402 51.8107 13.698 50.8155 13.7285 50.8341C14.4875 51.2941 15.3256 51.8069 15.6106 52.6539C15.6249 52.6963 15.4443 53.1212 15.2922 53.3014ZM11.8298 54.6427C11.5727 54.5363 11.3083 54.4568 11.0509 54.3513C10.7933 54.2458 10.5454 54.1119 10.3094 53.9534C9.60524 53.4803 9.01999 52.7914 8.65791 51.9852C8.83591 51.5638 9.10877 51.1943 9.45841 50.9323C9.80147 50.6759 10.2053 50.5184 10.5128 50.2089C10.5414 50.2576 10.5703 50.3061 10.5996 50.3541C10.774 50.6398 10.9619 50.9156 11.1556 51.1862C11.1132 51.7073 11.2117 52.248 11.2939 52.7657C11.3851 53.3412 11.5222 53.9285 11.8311 54.4261C11.9042 54.5433 11.985 54.6533 12.0741 54.755C11.9942 54.7141 11.9125 54.6769 11.8298 54.6427ZM8.15644 51.3535C8.10025 51.221 8.05328 51.0844 8.01654 50.9451C7.77299 50.0175 7.94891 48.9657 8.61545 48.1121C8.69866 48.0058 8.92548 47.732 8.9144 47.6998C9.25532 47.5611 9.57679 47.3862 9.86474 47.1664C9.8508 47.2376 9.83979 47.3098 9.833 47.3832C9.75579 48.2024 10.0561 48.9756 10.5085 49.6569C10.1025 49.9898 9.56299 50.1635 9.11471 50.4483C8.72761 50.6945 8.39985 51.0047 8.15644 51.3535ZM7.37345 49.6321C7.34414 49.6323 7.3134 49.6427 7.2851 49.6672C6.95812 49.9474 6.50876 50.0791 6.07076 50.1538C5.99206 49.2737 5.70397 48.4286 5.21744 47.6749C5.67681 47.6811 6.13761 47.6785 6.59905 47.6436C7.16872 47.6003 7.74968 47.5025 8.29548 47.3233C7.71194 48.0058 7.4107 48.8192 7.37345 49.6321ZM4.32179 50.1281C3.43765 50.0663 2.53414 49.935 1.65444 50.1281C1.55207 50.1504 1.45077 50.1777 1.35105 50.2091C1.33618 50.2138 1.28936 50.234 1.25783 50.2408C1.34347 50.0008 1.43605 49.7624 1.56372 49.5394C1.69518 49.3099 1.85982 49.1001 2.04754 48.9103C2.45058 48.5026 2.94269 48.1955 3.45553 47.9346C3.76413 47.7779 4.0806 47.637 4.39735 47.4964C4.48964 47.5411 4.62318 47.5411 4.72776 47.5468H4.73069C4.73355 47.5571 4.73777 47.5676 4.74413 47.578C5.22108 48.3538 5.52218 49.2266 5.6164 50.1284C5.18663 50.1765 4.75106 50.1584 4.32179 50.1281ZM0.829205 49.5325C0.795749 49.3541 0.763009 49.1754 0.732699 48.9965C0.64906 48.504 0.580791 48.0088 0.560203 47.5083C0.553055 47.335 0.606169 46.983 0.62983 46.974C1.75902 46.5458 4.21478 46.3487 4.18618 46.4214C4.14987 46.5129 4.10941 46.8348 4.09826 46.9325C4.0979 46.9361 4.0979 46.9398 4.09761 46.9435C2.97064 47.4337 1.76024 47.9828 1.09549 49.0207C0.990763 49.1845 0.905123 49.3568 0.829205 49.5325ZM1.13967 44.696C1.52533 43.8105 3.26702 42.7974 3.27674 42.7662C3.33379 42.7933 3.39154 42.8192 3.45052 42.8436C3.90453 43.0309 4.39478 43.1157 4.88381 43.0968C4.76722 43.1728 4.65599 43.2555 4.55505 43.3491C4.30106 43.5851 4.16088 43.8903 4.11312 44.2293C4.04514 44.709 4.05279 45.6765 4.01776 45.6743C2.88056 45.6165 1.80027 46.0229 0.759792 46.4278C0.788387 45.8336 0.900547 45.2451 1.13967 44.696ZM3.04334 40.1825C2.94562 40.1107 2.84003 40.046 2.72558 39.9969C2.71329 39.9916 2.6764 39.969 2.65388 39.9606C2.65703 39.9585 2.65946 39.957 2.66117 39.9558C2.72094 39.9234 2.77955 39.8896 2.83667 39.8536C3.27002 39.5817 3.62059 39.2169 3.96372 38.8571C4.32486 38.4781 5.45291 37.9462 5.52182 37.8658C6.04117 37.7701 6.47537 37.6662 7.00015 37.6539C7.59406 37.6403 8.18374 37.6818 8.76192 37.7758C8.77472 37.7777 8.78687 37.7781 8.79817 37.7769C8.74548 38.1341 8.64426 38.5827 8.69766 38.9376C8.72954 39.1491 8.75849 39.3823 8.82798 39.5829C8.81068 39.5958 8.45925 40.0997 8.14829 40.2959C7.74539 40.5506 7.33321 40.7932 6.92545 41.0413C6.78133 41.1289 6.42133 41.2705 6.37808 41.2792C5.38893 41.4811 4.33008 41.2447 3.59921 40.6593C3.40806 40.5065 3.24185 40.3287 3.04334 40.1825ZM3.6549 33.7407C3.90467 33.6731 4.52202 33.3538 4.76236 33.2588C5.05638 33.1421 5.53512 32.9106 5.82278 32.7817C6.31989 32.5591 6.89257 32.5657 7.42735 32.6494C7.72695 32.6965 8.03377 32.9627 8.29405 33.1041C8.31749 33.1167 8.34094 33.1207 8.36289 33.1179C8.53403 33.6757 8.8748 34.1759 9.35097 34.5693C9.7307 34.8828 10.1765 35.1218 10.6632 35.2651C10.5501 35.3279 10.4391 35.3954 10.3313 35.4681C9.97611 35.707 9.63134 35.9998 9.39043 36.343C9.15059 36.6852 9.05509 37.089 8.95293 37.4779C8.94936 37.4766 8.9455 37.4752 8.94164 37.4742C7.9848 37.2069 6.97578 37.0903 5.9694 37.1387C5.84837 37.1448 5.7282 37.1545 5.60754 37.1633C5.58159 37.1652 5.55571 37.1701 5.53369 37.1664C5.52283 37.141 5.50209 37.119 5.47543 37.1068C5.45456 37.0541 5.45391 37.0282 5.4424 36.9823C5.3825 36.741 5.34997 36.6276 5.30415 36.3834C5.21379 35.9006 4.91491 35.4607 4.74356 34.9975C4.59372 34.5926 3.96551 34.0544 3.6549 33.7407ZM10.4995 29.0618C11.0595 29.2351 11.6665 29.392 12.1386 29.884C12.453 30.2118 12.6879 30.6464 12.807 31.1197C12.8165 31.1583 12.8356 31.1843 12.8578 31.1993C12.8607 31.4899 12.8824 31.7829 12.919 32.0726C13.0158 32.8349 13.2001 33.5853 13.3865 34.3328C13.3921 34.3546 13.4005 34.3722 13.4109 34.3862C13.0191 34.477 12.6249 34.572 12.2504 34.7235C12.0391 34.809 11.8374 34.9145 11.6462 35.0423C11.6456 34.993 11.6231 34.9424 11.5726 34.9215C10.7938 34.5989 10.0815 33.9073 9.64992 33.013C9.43024 32.5574 9.29807 32.0627 9.25174 31.5571C9.20156 31.0081 9.23166 30.4666 9.24638 29.9259C9.25996 29.4233 9.25839 28.9128 9.17247 28.4062C9.57114 28.7552 10.041 28.9196 10.4995 29.0618ZM13.6502 31.098C13.7471 30.6543 13.9282 30.2195 14.2157 29.8382C14.537 29.4123 14.9817 29.1145 15.4922 28.8976C16.1225 28.6298 16.7914 28.4247 17.453 28.2368C17.4747 28.4608 17.4999 28.6849 17.5471 28.9045C17.6022 29.1606 17.6958 29.4007 17.8185 29.6333C17.9407 29.8648 18.0803 30.0886 18.175 30.3322C18.2637 30.5601 18.3245 30.8 18.3511 31.0434C18.448 31.9368 17.5055 33.5514 17.5055 33.5514C17.5055 33.5514 16.8102 34.3216 16.4067 34.6578C16.3735 34.6855 16.3637 34.7172 16.369 34.7462C16.032 34.5518 15.6562 34.3893 15.2621 34.3042C14.845 34.2138 14.4319 34.2592 14.0159 34.3565C14.0211 34.34 14.0219 34.3216 14.0161 34.3011C13.727 33.2738 13.4125 32.1861 13.6502 31.098ZM20.3234 31.692C20.6718 31.6353 21.0281 31.625 21.3843 31.6601C21.5577 31.6771 21.7312 31.7048 21.903 31.7449C21.991 31.7656 22.0788 31.7892 22.1658 31.8155C22.2025 31.8265 22.2392 31.8384 22.2757 31.8506C22.2981 31.8579 22.3213 31.8687 22.344 31.8739C22.3487 31.8755 22.3532 31.8771 22.3579 31.8791C22.3414 31.9009 22.3433 32.0035 22.339 32.0366C22.3318 32.0916 22.3247 32.1468 22.3176 32.2016L22.2698 32.569C22.2404 32.7955 22.2109 33.0219 22.1815 33.2484C22.1261 33.6738 22.0697 34.1005 21.9335 34.499C21.6975 35.1886 21.2572 35.7773 20.7237 36.1921C20.022 36.7374 19.1632 37.0009 18.2934 37.0451C18.2468 37.0477 18.2169 37.0787 18.2039 37.1174C18.1655 37.0187 18.1241 36.9207 18.0801 36.8249C17.7664 36.1398 17.3116 35.5288 16.7649 35.0587C16.7821 35.0559 16.7989 35.0479 16.8147 35.0324C17.425 34.4378 17.9649 33.7199 18.2537 32.852C18.2834 32.7624 18.3099 32.6712 18.3336 32.5792C18.3579 32.5821 18.3836 32.5764 18.4067 32.5574C18.9623 32.0968 19.6271 31.8054 20.3234 31.692ZM16.3622 41.7055C16.0532 41.9515 15.7091 42.1612 15.3378 42.3066C15.1529 42.3793 14.9603 42.4326 14.7648 42.4696C14.7356 42.475 13.8281 42.4789 13.3933 42.4417C12.9719 42.4057 12.5338 42.3757 12.125 42.2712C11.9799 42.2341 11.8187 42.1824 11.6916 42.1144C11.6896 42.0942 11.5758 42.027 11.5758 42.027C11.4266 41.9308 11.2897 41.816 11.1627 41.6895C10.8882 41.4159 10.6512 41.1055 10.4541 40.7756C10.0598 40.1149 9.83078 39.3521 9.89891 38.5807C9.93436 38.1798 10.0274 37.772 10.1367 37.3826C10.1886 37.1975 10.2555 37.0165 10.3583 36.8506C10.467 36.6753 10.6053 36.5194 10.7527 36.3733C11.0407 36.0877 11.3714 35.8448 11.7335 35.6535C12.1222 35.4484 12.5418 35.3133 12.9669 35.2012C13.1801 35.1449 13.3947 35.0926 13.6094 35.0419C13.8193 34.9923 14.0321 34.9459 14.248 34.9354C14.6496 34.9164 15.0259 35.0457 15.3743 35.2226C16.6351 35.8633 17.4938 37.1502 17.5668 38.5275C17.5888 38.9418 17.5636 39.3609 17.5328 39.7751C17.5044 40.1576 17.4329 40.5257 17.2047 40.8508C16.9786 41.1733 16.6727 41.4579 16.3622 41.7055ZM11.1302 44.7857C11.2995 44.2998 11.7484 43.3721 11.7484 43.3721C11.7484 43.3721 12.4094 43.6525 12.7657 43.7174C13.1539 43.7882 13.5437 43.8441 13.9341 43.8859C13.9352 43.8883 13.9361 43.8907 13.9374 43.8932C14.183 44.3797 14.4352 44.8631 14.6731 45.3535C14.7868 45.5881 14.8899 45.8293 14.9438 46.0866C14.9605 46.1666 14.9724 46.2467 14.9803 46.3274C14.9738 46.3525 14.9749 46.3804 14.9871 46.4076C14.9975 46.5586 14.9958 46.7101 14.9885 46.8601C14.9771 47.1027 14.9551 47.3449 14.9282 47.5847C14.9028 47.8089 14.8627 48.0374 14.7716 48.2384C14.5846 48.6507 14.2355 48.942 13.9273 49.2391C13.5503 49.6028 13.1732 49.9664 12.7963 50.3301L12.2871 49.6315C11.8654 49.0333 11.4767 48.4068 11.2129 47.7121C11.0371 47.2491 10.9184 46.7548 10.8936 46.2604C10.8672 45.7396 10.9648 45.2606 11.1302 44.7857ZM5.41831 43.8842C5.46485 43.5635 5.61333 43.2693 5.89369 43.0389C6.24884 42.7472 6.71578 42.5545 7.13197 42.3436C7.62737 42.0923 8.13192 41.8513 8.61831 41.5855C8.94228 41.4087 9.25839 41.1956 9.44504 40.9055C9.47628 40.9909 9.51052 41.0757 9.54748 41.1596C9.72041 41.5492 9.95745 41.9114 10.2385 42.2452C10.5004 42.556 10.8006 42.8525 11.1687 43.0712C10.8636 43.4363 10.6466 43.8427 10.4379 44.2525C10.2776 44.5669 9.95759 45.1958 9.91635 45.2311C9.21529 45.8317 8.25723 46.118 7.32377 46.2167C6.81701 46.27 6.30931 46.2763 5.80419 46.2696C5.67094 46.2676 5.53784 46.2647 5.40466 46.2618C5.35155 46.2606 5.29822 46.2596 5.24503 46.258C5.23052 46.2577 5.19085 46.2613 5.17254 46.2557C5.17548 46.2406 5.18019 46.2261 5.18734 46.2119C5.25089 46.0622 5.33017 45.9276 5.36827 45.7703C5.5214 45.1387 5.32724 44.516 5.41831 43.8842ZM20.4379 48.4492C19.8074 48.1627 19.1274 48.144 18.4658 48.0357C17.7553 47.9194 17.0714 47.6302 16.4643 47.1751C16.1433 46.9349 15.8502 46.6512 15.5893 46.333C15.587 46.3097 15.5848 46.2862 15.582 46.2629C15.5484 45.9897 15.4676 45.7304 15.3596 45.4779C15.2385 45.1944 15.0929 44.9218 14.9549 44.647C14.8279 44.3938 14.7007 44.1402 14.5737 43.8869C14.8018 43.9087 15.3318 43.9173 15.3483 43.8862C16.1767 43.7317 16.8886 43.1995 17.4464 42.5434C17.455 42.5332 17.4633 42.5233 17.4716 42.513C17.9353 42.7166 18.377 42.9835 18.7855 43.3084C19.1869 43.6276 20.661 45.2572 20.3948 47.7097C20.3943 47.9564 20.4068 48.2037 20.4379 48.4492ZM25.5457 37.0641C25.8758 37.21 26.2001 37.3668 26.5237 37.5239C25.8175 38.2073 24.9196 38.6892 23.967 38.9886C22.8861 39.3284 21.7486 39.4343 20.6231 39.4256C19.9762 39.4202 19.3315 39.3777 18.689 39.3215C18.6897 39.3054 18.6905 39.2895 18.6912 39.2734C18.7099 38.8768 18.7055 38.4788 18.6274 38.0899C18.5871 37.8885 18.529 37.6909 18.4556 37.4987C18.4658 37.5008 18.4771 37.5018 18.4898 37.5007C19.3727 37.4265 20.2533 37.1884 21.0102 36.7297C21.1333 36.6552 21.2527 36.5748 21.3682 36.4891C21.3854 36.4943 21.4053 36.4946 21.4279 36.4883C22.8366 36.0905 24.2846 36.5061 25.5457 37.0641ZM24.4837 40.7011C24.2163 40.4721 23.9159 40.2844 23.5662 40.1601C24.858 40.0001 26.1305 39.6423 27.2686 39.0073C27.9367 38.6346 28.5516 38.1662 29.0708 37.607C29.1262 37.5471 29.1293 37.4383 29.0473 37.3956C27.3856 36.5269 25.6383 35.6271 23.7123 35.6095C23.333 35.6059 22.9531 35.6388 22.5814 35.7123C23.0049 35.3093 23.362 34.8379 23.6172 34.3144C23.8493 33.8381 23.9759 33.3344 24.0728 32.8166C24.1812 32.238 24.2852 31.6579 24.3912 31.0786C24.4117 30.9663 24.4474 30.8425 24.3744 30.7416C24.3055 30.6464 24.1705 30.6286 24.063 30.6014C23.8169 30.5387 23.5666 30.4921 23.3147 30.4595C22.8145 30.395 22.3094 30.3942 21.8085 30.4477C20.7513 30.5604 19.7337 30.9334 18.8605 31.5306C18.9349 31.2111 18.9723 30.8834 18.9695 30.5554C18.9695 30.5457 18.9703 30.5359 18.97 30.5262C18.9603 29.8831 18.7952 29.2721 18.5217 28.692C18.516 28.6802 18.5112 28.6681 18.5054 28.6561C18.3427 28.318 18.1733 27.9879 18.0805 27.6222C17.982 27.2342 17.9477 26.8346 17.9147 26.437C17.9078 26.3527 17.8403 26.2787 17.7471 26.3023C16.9979 26.4924 16.2489 26.7073 15.5252 26.9782C14.8938 27.2147 14.3132 27.5374 13.8808 28.0606C13.3926 28.6523 13.1205 29.3613 13.005 30.1013C12.6997 29.3972 12.1087 28.8606 11.3744 28.579C10.6253 28.2918 9.81284 28.2397 9.04679 28.0125C8.63518 27.8904 8.24093 27.7107 7.92575 27.4161C7.83068 27.3274 7.66211 27.4067 7.69607 27.541C8.00732 28.7721 7.58534 30.0286 7.6358 31.2715C7.64667 31.5376 7.68406 31.7979 7.74554 32.0505C7.17887 31.7761 6.54014 31.656 5.91049 31.7092C5.56622 31.7381 5.23145 31.8133 4.90998 31.9392C4.54404 32.0825 4.22128 32.3036 3.87651 32.4871C3.46031 32.7087 3.00838 32.8459 2.55823 32.9817C2.46781 33.0089 2.40983 33.1336 2.49239 33.2055C3.45159 34.0423 3.72453 35.3292 3.98588 36.5098C4.05894 36.8408 4.13371 37.1719 4.22643 37.4981C4.24359 37.5584 4.25853 37.6259 4.28019 37.6902C3.16729 38.3008 2.50483 39.4756 1.38994 40.0837C1.26691 40.1509 1.08334 40.1992 1.05774 40.3582C1.02922 40.5351 1.20393 40.6279 1.33175 40.7048C1.6207 40.8788 1.83437 41.147 2.05547 41.3946C2.37273 41.7495 2.73938 42.0474 3.14971 42.2802C2.10001 42.628 1.22095 43.3608 0.694382 44.3272C0.172678 45.2847 -0.0147577 46.3886 0.00089773 47.4675C0.0103339 48.1043 0.0849652 48.739 0.185903 49.3672C0.2358 49.6767 0.292132 49.9851 0.350607 50.2932C0.378844 50.4424 0.400218 50.596 0.437605 50.7434C0.440536 50.7552 0.443967 50.7667 0.447828 50.778C0.431171 50.8492 0.474849 50.9017 0.531824 50.9222C0.565636 50.9559 0.607884 50.9805 0.66107 50.9922C0.784812 51.0192 0.910484 50.957 1.02701 50.9233C1.16705 50.8831 1.30973 50.8508 1.45356 50.8257C1.71735 50.78 1.98442 50.7603 2.25185 50.7561C2.81008 50.747 3.36681 50.8034 3.92197 50.8527C4.53768 50.9073 6.06362 50.9145 6.101 50.8611C6.58739 50.789 7.07922 50.6442 7.4518 50.3273C7.46145 50.5034 7.47961 50.6791 7.50685 50.8539C7.72709 52.2725 8.54811 53.5304 9.71061 54.3772C10.3214 54.822 10.9994 55.0995 11.7207 55.3161C12.0677 55.4203 12.42 55.5257 12.7353 55.7079C12.8151 55.7541 12.8931 55.8047 12.9661 55.8608C13.0393 55.9174 13.1037 55.9887 13.2013 55.9986C13.4044 56.0199 13.4993 55.7922 13.605 55.6639C13.8409 55.3775 14.152 55.1629 14.4559 54.9539C14.7615 54.7438 15.0631 54.5305 15.3274 54.2696C15.8363 53.7668 16.2172 53.1446 16.4548 52.4742C16.6289 51.9826 16.7179 51.4728 16.7316 50.9614C17.1741 51.959 18.1134 52.6784 19.1434 53.0369C20.4777 53.5014 21.9215 53.4197 23.3067 53.2995C24.1623 53.2254 25.0185 53.1394 25.8786 53.158C25.974 53.1601 26.0269 53.0777 26.0148 52.9921C25.9335 52.4048 26.1453 51.8318 26.3635 51.2961C26.6006 50.7147 26.8408 50.1477 26.9235 49.5203C27.0123 48.8457 26.9515 48.159 26.8393 47.4903C26.7213 46.7877 26.5559 46.0707 26.188 45.4501C25.8834 44.9356 25.4261 44.493 24.8607 44.2781C25.3939 44.0909 25.9222 43.8909 26.4674 43.74C26.575 43.7102 26.5941 43.5973 26.5331 43.5161C26.3743 43.3044 26.2244 43.0765 26.0763 42.8421C25.6002 42.088 25.1448 41.2673 24.4837 40.7011Z" fill="#614930"/>
<path d="M71.8718 33.3346C71.9438 33.3977 71.954 33.529 71.8757 33.5979C71.6049 33.8361 71.6217 34.3074 71.8211 34.5838C72.0832 34.9469 72.5944 34.9486 72.9597 34.786C73.162 34.6959 73.3255 34.6152 73.545 34.6668C73.7624 34.7176 73.9654 34.7808 74.1919 34.7651C74.3563 34.7536 74.6029 34.7256 74.7191 34.5686C74.8234 34.4278 74.6955 34.2159 74.6662 34.0696C74.6306 33.8929 74.675 33.7105 74.8048 33.5929C74.8605 33.5423 74.9264 33.5074 74.9913 33.4746C75.0389 33.4504 75.1252 33.4253 75.1565 33.373C75.2451 33.2244 74.9323 33.1134 74.857 33.0778C74.69 32.9993 74.5458 32.8876 74.4903 32.6844C74.4359 32.4845 74.483 32.268 74.4244 32.0683C74.4107 32.0207 74.3925 31.9747 74.371 31.9309C74.3277 31.9067 74.3009 31.8573 74.2939 31.8043C74.2415 31.7338 74.1791 31.673 74.1088 31.6265C73.9553 31.5256 73.7687 31.5065 73.5947 31.5538C73.3991 31.6069 73.2949 31.7529 73.1416 31.8832C72.9567 32.0403 72.7747 31.9806 72.5699 31.9378C72.349 31.8918 72.1139 31.8753 71.8891 31.9138C71.8096 31.9272 71.7156 31.9476 71.6542 32.013C71.58 32.0921 71.5775 32.212 71.5768 32.3187C71.5758 32.5773 71.5904 32.8371 71.5974 33.0955C71.6889 33.175 71.7805 33.255 71.8718 33.3346Z" fill="#FBD070"/>
<path d="M18.3337 32.579C18.31 32.6711 18.2835 32.7622 18.2538 32.8518C17.965 33.7198 17.4251 34.4377 16.8148 35.0323C16.799 35.0477 16.7821 35.0557 16.765 35.0585C17.3117 35.5287 17.7665 36.1396 18.0804 36.8248C18.1243 36.9206 18.1656 37.0185 18.204 37.1172C18.217 37.0787 18.2469 37.0475 18.2935 37.045C19.1633 37.0007 20.0221 36.7373 20.7238 36.1921C21.2573 35.7773 21.6976 35.1886 21.9335 34.4989C22.0698 34.1004 22.1263 33.6738 22.1816 33.2484C22.211 33.0218 22.2405 32.7953 22.2699 32.5688L22.3177 32.2015C22.3249 32.1466 22.3319 32.0915 22.3391 32.0365C22.3434 32.0033 22.3415 31.9008 22.358 31.8791C22.3533 31.877 22.3488 31.8754 22.3441 31.8738C22.3213 31.8685 22.2982 31.8578 22.2758 31.8504C22.2393 31.8383 22.2025 31.8264 22.1659 31.8155C22.0789 31.789 21.991 31.7655 21.9031 31.7449C21.7314 31.7046 21.5578 31.677 21.3843 31.66C21.0282 31.6248 20.6719 31.6352 20.3235 31.6919C19.6272 31.8052 18.9624 32.0966 18.4068 32.5573C18.3837 32.5763 18.358 32.582 18.3337 32.579Z" fill="#FBD070"/>
<path d="M18.7854 43.3083C18.3771 42.9835 17.9353 42.7164 17.4718 42.5129C17.4633 42.5232 17.455 42.5331 17.4465 42.5432C16.8887 43.1994 16.1769 43.7316 15.3483 43.8861C15.3318 43.9173 14.802 43.9084 14.5737 43.8866C14.7008 44.14 14.8279 44.3936 14.955 44.6469C15.0929 44.9216 15.2385 45.1943 15.3597 45.4777C15.4676 45.7302 15.5484 45.9895 15.582 46.2627C15.5848 46.2862 15.5871 46.3095 15.5894 46.3328C15.8504 46.6511 16.1433 46.9346 16.4645 47.1749C17.0714 47.6299 17.7555 47.9191 18.4659 48.0355C19.1274 48.1439 19.8073 48.1625 20.438 48.4491C20.4067 48.2036 20.3944 47.9561 20.3949 47.7095C20.661 45.2571 19.1869 43.6275 18.7854 43.3083Z" fill="#FBD070"/>
<path d="M11.213 47.712C11.4769 48.4066 11.8656 49.0331 12.2873 49.6313L12.7964 50.3299C13.1734 49.9662 13.5504 49.6027 13.9274 49.239C14.2357 48.9418 14.5847 48.6505 14.7717 48.2381C14.8627 48.0372 14.9031 47.8088 14.9284 47.5846C14.9552 47.3448 14.9772 47.1025 14.9887 46.8599C14.9958 46.71 14.9976 46.5585 14.9871 46.4075C14.9751 46.3802 14.9738 46.3524 14.9805 46.3272C14.9725 46.2466 14.9606 46.1666 14.944 46.0865C14.8901 45.8292 14.7869 45.5879 14.6732 45.3534C14.4353 44.863 14.1831 44.3794 13.9376 43.8931C13.9363 43.8905 13.9354 43.888 13.9342 43.8859C13.5439 43.8441 13.1541 43.7879 12.7657 43.7172C12.4096 43.6524 11.7485 43.3721 11.7485 43.3721C11.7485 43.3721 11.2996 44.2996 11.1303 44.7855C10.9649 45.2603 10.8673 45.7395 10.8937 46.2603C10.9186 46.7546 11.0372 47.2489 11.213 47.712Z" fill="#FBD070"/>
<path d="M5.18735 46.212C5.1802 46.226 5.17556 46.2407 5.17249 46.2557C5.19086 46.2613 5.23053 46.2576 5.24511 46.2579C5.29823 46.2597 5.35149 46.2607 5.4046 46.2618C5.53778 46.2647 5.67096 46.2675 5.80421 46.2695C6.3094 46.2764 6.81702 46.2701 7.32385 46.2166C8.25717 46.1181 9.21523 45.8316 9.91643 45.2311C9.95754 45.1959 10.2776 44.5669 10.4379 44.2524C10.6466 43.8427 10.8635 43.4363 11.1687 43.0711C10.8006 42.8524 10.5005 42.556 10.2385 42.2453C9.95739 41.9115 9.72042 41.5491 9.54742 41.1595C9.51046 41.0756 9.47629 40.9908 9.44505 40.9054C9.2584 41.1955 8.94222 41.4087 8.61825 41.5855C8.13186 41.8512 7.62745 42.0923 7.13198 42.3436C6.71572 42.5546 6.24899 42.7471 5.89371 43.0388C5.61348 43.2693 5.46479 43.5636 5.41847 43.8842C5.32718 44.5159 5.52141 45.1386 5.36828 45.7704C5.33011 45.9277 5.25098 46.0621 5.18735 46.212Z" fill="#FBD070"/>
<path d="M14.0158 34.3563C14.4318 34.2591 14.8451 34.2137 15.2621 34.304C15.6562 34.3892 16.0319 34.5517 16.3689 34.7461C16.3636 34.7171 16.3735 34.6855 16.4066 34.6578C16.8103 34.3215 17.5055 33.5513 17.5055 33.5513C17.5055 33.5513 18.448 31.9367 18.3511 31.0433C18.3245 30.8 18.2637 30.56 18.175 30.3321C18.0803 30.0886 17.9406 29.8647 17.8185 29.6332C17.6957 29.4007 17.6022 29.1605 17.5472 28.9045C17.4999 28.6848 17.4748 28.4607 17.4532 28.2367C16.7914 28.4246 16.1224 28.6297 15.4922 28.8975C14.9817 29.1143 14.5369 29.4123 14.2158 29.838C13.9281 30.2195 13.7471 30.6542 13.6503 31.098C13.4126 32.186 13.727 33.2738 14.0161 34.301C14.0219 34.3215 14.0212 34.3399 14.0158 34.3563Z" fill="#FBD070"/>
<path d="M9.24645 29.9258C9.2318 30.4665 9.2017 31.0079 9.25181 31.557C9.29821 32.0626 9.43031 32.5573 9.65006 33.0128C10.0816 33.9072 10.794 34.5987 11.5727 34.9213C11.6231 34.9423 11.6457 34.9929 11.6463 35.0422C11.8375 34.9144 12.0393 34.8089 12.2505 34.7234C12.625 34.5719 13.0192 34.4769 13.4109 34.386C13.4006 34.3721 13.3923 34.3545 13.3866 34.3327C13.2002 33.5851 13.0158 32.8347 12.9193 32.0725C12.8824 31.7828 12.8608 31.4898 12.858 31.1992C12.8357 31.1841 12.8167 31.1583 12.807 31.1196C12.688 30.6463 12.453 30.2116 12.1387 29.8839C11.6666 29.3919 11.0596 29.235 10.4996 29.0617C10.0412 28.9195 9.57128 28.7551 9.17261 28.4061C9.25853 28.9126 9.26003 29.4232 9.24645 29.9258Z" fill="#FBD070"/>
<path d="M5.30442 36.3833C5.35025 36.6275 5.38263 36.7409 5.44268 36.9822C5.45404 37.0281 5.45483 37.054 5.4757 37.1067C5.5023 37.1189 5.52303 37.1408 5.53382 37.1663C5.55584 37.17 5.58179 37.1651 5.60767 37.1632C5.72841 37.1544 5.84865 37.1448 5.96953 37.1386C6.97605 37.0902 7.985 37.2067 8.94177 37.4741C8.94577 37.4751 8.94942 37.4765 8.95314 37.4779C9.05536 37.0889 9.15087 36.6851 9.39063 36.3429C9.63147 35.9997 9.97631 35.7069 10.3314 35.468C10.4393 35.3953 10.5503 35.3278 10.6635 35.265C10.1767 35.1217 9.73097 34.8827 9.35117 34.5693C8.87493 34.1759 8.53423 33.6756 8.36295 33.1178C8.34122 33.1206 8.31763 33.1166 8.29432 33.104C8.03404 32.9626 7.72708 32.6964 7.42756 32.6493C6.8927 32.5656 6.32017 32.559 5.82305 32.7816C5.53518 32.9104 5.05665 33.142 4.76256 33.2587C4.5223 33.3537 3.90494 33.673 3.65503 33.7406C3.96571 34.0543 4.594 34.5925 4.74376 34.9974C4.91518 35.4606 5.21399 35.9004 5.30442 36.3833Z" fill="#FBD070"/>
<path d="M6.37813 41.2792C6.42152 41.2705 6.78153 41.1289 6.92564 41.0413C7.33333 40.7932 7.74544 40.5505 8.14848 40.2959C8.45945 40.0997 8.81073 39.5958 8.82817 39.5829C8.75861 39.3823 8.72973 39.1491 8.69785 38.9376C8.64431 38.5828 8.7456 38.134 8.79822 37.7769C8.78692 37.778 8.77491 37.7777 8.76212 37.7758C8.18379 37.6818 7.59425 37.6403 7.00035 37.6539C6.47557 37.6662 6.04136 37.7701 5.52187 37.8657C5.45296 37.946 4.32491 38.4781 3.96377 38.8571C3.62063 39.2169 3.27021 39.5817 2.83686 39.8535C2.77968 39.8897 2.72113 39.9235 2.66122 39.9557C2.65965 39.957 2.65715 39.9586 2.65393 39.9606C2.67645 39.969 2.71334 39.9917 2.72563 39.9968C2.84008 40.046 2.94566 40.1107 3.04346 40.1825C3.2419 40.3287 3.40825 40.5065 3.5994 40.6593C4.3302 41.2447 5.38898 41.4811 6.37813 41.2792Z" fill="#FBD070"/>
<path d="M22.6674 40.1171C22.602 40.1014 19.9369 40.0425 18.6235 39.9097C18.6104 40.296 18.5886 40.6884 18.484 41.0588C18.3838 41.4134 18.183 41.7145 17.9443 41.9898C18.4785 42.193 18.9861 42.4594 19.4501 42.7884C19.8874 43.0987 20.2707 43.5006 20.7785 43.705C20.8362 43.7282 21.0371 43.7636 21.0656 43.8006C21.4419 43.9028 21.8388 43.9235 22.2291 43.894C23.3342 43.8099 24.3463 43.3081 25.396 42.9946C24.6441 41.9323 24.0708 40.4519 22.6674 40.1171Z" fill="#FBD070"/>
<path d="M21.3682 36.489C21.2529 36.5748 21.1333 36.6553 21.0103 36.7296C20.2532 37.1884 19.3727 37.4265 18.4899 37.5006C18.4771 37.5017 18.4657 37.5009 18.4556 37.4987C18.5289 37.6908 18.5872 37.8885 18.6275 38.09C18.7056 38.4788 18.71 38.8768 18.6913 39.2733C18.6903 39.2895 18.6898 39.3055 18.689 39.3214C19.3315 39.3778 19.9763 39.4201 20.6231 39.4255C21.7486 39.4343 22.8862 39.3284 23.9669 38.9885C24.9195 38.6891 25.8174 38.2073 26.5237 37.5239C26.2 37.3667 25.8757 37.2101 25.5458 37.0641C24.2847 36.5062 22.8365 36.0904 21.4278 36.4883C21.4054 36.4946 21.3853 36.4944 21.3682 36.489Z" fill="#FBD070"/>
<path d="M26.9653 12.3786C27.1267 13.1873 27.3384 14.2518 27.0997 14.4106C27.1527 14.516 27.2296 14.6924 27.3188 14.9071C27.4146 14.8449 27.4943 14.7871 27.5484 14.7384C27.5159 14.778 27.6194 14.782 27.8087 14.7688C27.773 14.6052 27.7383 14.4375 27.7059 14.2663C27.5249 13.3093 27.3883 12.5135 27.402 12.3542C27.4236 12.1041 27.5184 12.0223 27.7863 11.9587C30.0136 11.4316 31.2941 9.30859 30.6665 7.09722C30.5597 6.72021 30.3091 6.4851 29.0594 5.40552C29.1826 5.84929 30.1817 6.15485 30.2078 7.45774C30.2338 8.76034 29.9267 10.1371 28.4627 10.9289C28.1751 11.0844 27.8797 11.2281 27.5823 11.3668C27.4868 11.4116 27.3917 11.5317 27.2675 11.3556C26.987 10.9584 26.8873 11.1043 26.8257 11.48C26.8197 11.5172 26.824 11.5833 26.8355 11.6698C26.8619 11.706 26.8902 11.7512 26.9208 11.809C26.9781 11.9168 26.9823 12.1599 26.9653 12.3786Z" fill="#614930"/>
<path d="M26.9208 12.7004C26.9389 12.6215 26.9556 12.5041 26.9654 12.3787C26.9825 12.16 26.9782 11.9168 26.921 11.8091C26.8904 11.7512 26.8622 11.706 26.8356 11.6699C26.6863 11.4671 26.5962 11.5901 26.5111 11.8632C26.4012 12.216 26.5729 13.8643 26.7438 15.2361C26.841 15.1858 26.9368 15.1341 27.0275 15.083C26.9467 14.0195 26.8762 12.8958 26.9208 12.7004Z" fill="#614930"/>
<path d="M35.2916 15.0857C35.3717 15.201 35.4886 15.2701 35.6292 15.312C35.6508 15.173 35.6728 15.0335 35.6949 14.8962C35.5697 14.9267 35.437 14.9685 35.2943 15.0345C35.2935 15.0515 35.2926 15.0687 35.2916 15.0857Z" fill="#614930"/>
<path d="M35.2043 11.1866C35.2438 11.1919 35.2816 11.1994 35.3177 11.2103C35.2755 11.2287 35.2457 11.2427 35.2268 11.2518C35.2289 11.2584 35.231 11.2654 35.2332 11.2723C35.3124 11.321 35.3587 11.4 35.3898 11.535C35.4251 11.6892 35.3749 13.4496 35.3749 13.4496C35.3767 13.4498 35.3435 14.1002 35.3045 14.8424C35.4621 14.7933 35.6017 14.7098 35.7389 14.6289C35.8229 14.1258 35.905 13.6894 35.9633 13.5031C35.7406 13.3938 35.7589 12.5042 35.7917 11.7327C35.8145 11.1986 35.8443 10.7209 35.806 10.5969C35.6954 10.2381 35.5813 10.1097 35.3747 10.5389C35.2831 10.729 35.1771 10.6252 35.0815 10.5955C34.7829 10.5026 34.4859 10.4045 34.1945 10.2939C32.7111 9.73068 32.0114 8.70556 32.0694 7.14994C32.0848 6.73736 32.1604 6.32507 32.213 5.8728C31.8234 6.14272 31.6356 6.47947 31.5885 6.86369C31.317 9.08461 32.7697 10.9534 34.8801 11.193C35.0311 10.9203 35.1236 10.9715 35.2043 11.1866Z" fill="#614930"/>
<path d="M35.241 11.2978C35.2383 11.289 35.2356 11.2808 35.233 11.2723C35.2309 11.2655 35.2287 11.2584 35.2267 11.2518C35.2123 11.2587 35.2035 11.2631 35.2035 11.2631L35.2712 11.9154C35.1548 11.9604 35.0382 12.0071 34.9218 12.0576C34.9218 12.0576 34.896 12.075 34.8491 12.1074C34.8504 12.1135 34.8516 12.1202 34.8529 12.1259C34.8992 12.3376 34.8145 13.6808 34.73 14.8383C34.8584 14.8774 34.9745 14.8901 35.0813 14.8837C35.214 13.4311 35.347 11.6529 35.241 11.2978Z" fill="#614930"/>
<path d="M35.2042 11.1866C35.1236 10.9715 35.031 10.9203 34.88 11.193C34.8787 11.1953 34.8774 11.198 34.8761 11.2002C34.9956 11.1796 35.1056 11.1738 35.2042 11.1866Z" fill="#614930"/>
<path d="M25.6767 20.1249C25.4351 20.1739 25.2786 20.1513 25.1425 20.1113C22.8164 22.8557 20.471 25.8907 18.5219 28.692C18.7954 29.2721 18.9606 29.8829 18.9703 30.5262C18.9704 30.5359 18.9696 30.5456 18.9697 30.5553C21.1896 27.4795 23.9532 24.7096 25.4176 22.143C25.6091 21.635 25.8632 21.1245 26.1636 20.6173C25.9984 20.4555 25.8924 20.2438 25.6767 20.1249Z" fill="#614930"/>
<path d="M30.0208 14.998C30.4124 15.0098 30.7888 15.0094 31.1552 15.0011C32.9381 13.4455 34.5021 12.3468 34.8492 12.1074C34.8961 12.075 34.9219 12.0576 34.9219 12.0576C35.0383 12.0071 35.1548 11.9604 35.2713 11.9155L35.2036 11.263C35.2036 11.263 35.2124 11.2586 35.2268 11.2519C35.2457 11.2427 35.2754 11.2287 35.3176 11.2103C35.2815 11.1996 35.2437 11.192 35.2042 11.1868C35.1056 11.1738 34.9954 11.1797 34.8761 11.2004C33.883 11.3722 32.1938 12.6751 30.1891 14.6284C30.386 14.6392 30.5681 14.6611 30.7225 14.6994C30.6167 14.9015 30.0439 14.7295 30.0208 14.998Z" fill="#614930"/>
<path d="M28.8583 20.1078C28.9521 20.1071 29.053 20.1007 29.1631 20.0863C29.1552 20.0848 29.1469 20.0837 29.139 20.0822C29.0381 20.097 28.9453 20.1047 28.8583 20.1078Z" fill="#614930"/>
<path d="M35.1435 15.6591C35.1324 15.6527 35.1207 15.6472 35.1094 15.6411C35.0906 15.643 35.0723 15.6453 35.0547 15.6479C35.0834 15.6508 35.1128 15.6544 35.1435 15.6591Z" fill="#614930"/>
<path d="M29.1853 19.5854L29.2016 19.5951C29.1986 19.5923 29.1927 19.589 29.1853 19.5854Z" fill="#614930"/>
<path d="M23.1786 17.5501C23.411 16.9677 24.3748 16.2178 24.9274 16.3689C23.9125 16.6078 23.7998 17.5696 23.5423 18.4155C23.6216 17.9577 22.997 18.0938 23.1786 17.5501ZM33.5699 15.2841C34.1262 15.2949 34.6651 15.4014 35.1131 15.6446C35.1243 15.6506 35.1358 15.6562 35.1471 15.6626C35.1162 15.6578 35.0868 15.6543 35.0581 15.6514C34.2654 15.57 34.2645 16.1232 33.5657 16.117C33.135 15.8753 32.2229 16.0398 31.5432 16.0082C31.2898 15.9962 31.0686 15.9574 30.917 15.8599C31.5487 15.5529 32.4691 15.3025 33.3687 15.2844C33.4359 15.283 33.5031 15.2827 33.5699 15.2841ZM38.9228 16.1117C39.2255 16.3545 39.7367 16.4219 40.097 16.6162C40.0232 16.9873 39.8581 17.2856 39.579 17.4923C39.8593 16.6884 38.6777 16.4158 38.8298 16.0929C38.8362 16.0793 38.844 16.0657 38.8554 16.0519C38.8763 16.073 38.8991 16.0928 38.9228 16.1117ZM38.7011 17.793C38.014 17.8352 38.4863 16.8998 37.983 16.7874C37.9576 16.9581 38.0185 17.1981 37.8121 17.2242C37.7601 17.007 37.0461 16.6233 37.4503 16.5039C37.4999 16.8425 38.2262 16.5778 38.3317 16.4929C38.5902 16.8121 38.7837 17.1862 38.7011 17.793ZM35.6779 15.801C35.9971 16.2156 36.8787 16.1559 36.925 16.8004C36.3653 16.6373 35.7157 16.5502 35.3307 16.2403C35.6219 16.2345 35.4243 15.837 35.6779 15.801ZM35.0091 18.7084C35.8302 18.5532 36.8213 18.5344 37.2941 18.1004C36.4615 18.1187 36.3188 17.5554 35.698 17.3954C34.781 17.2408 34.2263 16.7807 33.0458 16.8483C32.9887 16.4081 32.1108 16.6601 31.9802 16.2818C32.9727 16.2264 33.9422 16.1902 34.1037 16.8352C35.4937 15.9137 36.2446 17.6553 37.4668 17.8082C37.3476 17.3654 36.3959 16.8068 36.3959 16.8068C36.3959 16.8068 38.2297 17.2139 38.0031 18.3814C37.0918 18.6624 35.5359 19.7988 35.0091 18.7084ZM25.4543 16.2174C25.5372 16.2241 25.6051 16.308 25.6427 16.4213C25.6921 16.5697 25.6891 16.7685 25.5995 16.9108C25.5392 17.0069 25.4394 17.0773 25.2892 17.0892C25.2614 16.7321 25.2536 16.3913 25.4543 16.2174ZM24.5165 17.3084C24.5479 16.998 24.6605 16.7368 24.931 16.6586L24.9329 16.8062C24.9359 17.0469 24.9389 17.2876 24.942 17.5285C24.9275 17.5158 24.9244 17.5411 24.929 17.5921C24.9483 17.8067 25.1025 18.4823 25.1061 18.7662L24.6993 18.6908C24.6993 18.6908 24.6941 18.6741 24.6855 18.6438C24.6348 18.4665 24.4647 17.8206 24.5165 17.3084ZM33.4519 18.6238C32.6987 18.6283 31.9953 18.5469 31.5415 18.3164C31.6745 18.8091 30.7673 18.4297 30.6608 18.2391C30.3093 18.2127 29.7226 18.195 28.7185 18.2064C28.7185 18.2064 28.7183 18.2065 28.7183 18.2065V18.2064C28.6968 18.2066 28.6759 18.2069 28.654 18.2071C28.6933 18.1999 28.7327 18.1928 28.7722 18.1857C28.7757 18.1851 28.779 18.1843 28.7829 18.1837C29.646 18.0278 30.5234 17.883 31.5683 17.8727C31.7298 17.8703 31.8948 17.8707 32.0649 17.8749C32.8034 17.9351 33.8765 18.2942 34.4787 18.3002C34.5429 18.298 34.6008 18.291 34.651 18.278C33.6958 17.8589 32.4192 17.7109 30.9428 17.7314C30.7322 17.735 30.5178 17.742 30.2996 17.752C29.5822 17.8305 28.7277 18.1801 27.9626 18.1842C27.7107 18.1917 27.4676 18.1642 27.2416 18.0797C26.875 18.0552 29.8626 17.4407 32.5879 17.4176C34.2353 17.3982 35.7974 17.5907 36.4786 18.2555C35.7791 18.4334 34.5591 18.6195 33.4519 18.6238ZM32.5424 18.8837C33.5859 18.8828 34.8344 18.7094 35.193 19.2859C34.4079 19.512 33.065 19.3256 32.5424 18.8837ZM29.5737 19.3038C28.5935 18.8635 26.8897 18.1405 26.715 18.1046C26.7101 18.1048 26.705 18.1044 26.7002 18.1044L29.1887 19.5889C29.1964 19.5927 29.2025 19.5961 29.2057 19.599L29.1887 19.5889C29.0647 19.5289 28.3586 19.3689 27.8338 19.2998C27.7638 19.2906 27.6973 19.2833 27.6355 19.2777C27.414 19.2579 27.257 19.2647 27.2489 19.3195C27.1187 19.4054 26.9088 19.1203 26.7716 18.8029C26.716 18.6744 26.6726 18.5409 26.651 18.4242C26.623 18.2726 26.6317 18.1495 26.7002 18.1044C26.7009 18.1026 26.7063 18.1029 26.715 18.1046C26.7368 18.1044 26.7594 18.1059 26.7814 18.106C27.2495 18.1101 27.7774 18.2135 28.3609 18.3379C29.1803 18.5129 30.1077 18.7268 31.1298 18.7564C31.1607 18.6848 33.6404 19.5239 33.6095 19.5953C32.8736 19.6318 32.255 19.7619 31.5044 19.7865C31.2802 19.7939 31.0447 19.7922 30.7902 19.7753C30.7583 19.6067 30.5093 19.6213 30.2593 19.6368C30.2657 19.6219 29.9826 19.4874 29.5737 19.3038ZM32.1622 16.7142C31.5254 16.6254 30.7655 16.6254 30.0235 16.6668C28.2952 16.7633 26.6644 17.0845 26.9156 17.0342C26.8717 16.8992 29.1944 16.1747 29.2476 16.2257C30.4251 16.1684 31.4158 16.2832 32.0757 16.6631C32.1049 16.6798 32.1344 16.6964 32.1622 16.7142ZM28.6172 15.3086C29.6787 15.3903 31.0657 14.9593 31.837 15.2856C30.42 15.5894 28.3954 16.6148 27.0395 16.0529C27.0622 16.1 28.64 15.3557 28.6172 15.3086ZM32.6745 20.4768C31.567 20.2957 30.2601 20.2824 29.1666 20.0896C29.0563 20.1038 28.9555 20.1104 28.8616 20.1109C28.3207 20.1299 28.0108 19.9538 27.4977 19.9491C27.4245 19.9504 27.3481 19.9544 27.2653 19.9639C27.2605 19.9625 27.2552 19.9617 27.2504 19.9605C27.2337 19.962 27.2181 19.9626 27.2011 19.9646C26.6748 19.8224 25.7914 19.9811 25.6086 19.5494C25.6319 19.5524 25.6552 19.5555 25.6785 19.5584C25.6769 19.5548 25.6744 19.5522 25.6728 19.5485C28.2193 19.874 30.7397 20.2215 33.729 20.1737C33.8053 20.1013 34.1729 19.9877 34.455 19.9933C34.6494 19.9858 34.8184 20.0255 34.8511 20.1599C34.0198 20.1632 33.5184 20.4309 32.7388 20.476C32.7329 20.475 32.7269 20.4741 32.721 20.4733C32.7054 20.4743 32.6904 20.4759 32.6745 20.4768ZM39.6066 19.6664C39.6831 19.5362 39.7581 19.4051 39.9554 19.3719C39.6309 19.029 39.3209 19.906 38.5486 19.6794C39.3492 19.1251 40.4579 18.8179 40.997 18.0544C41.4122 18.0462 41.5193 18.2978 42.0567 18.1864C42.0848 17.8699 41.9068 17.7269 41.5223 17.7582C41.5211 17.4701 42.0013 17.5679 41.8679 17.174C41.56 17.3864 41.4675 17.312 41.5114 16.8886C40.9135 17.9399 40.1797 18.8819 38.7196 19.2422C39.2011 18.8631 39.5179 18.352 40.1153 18.0655C40.0806 17.6072 40.5779 17.5754 40.4551 17.0465C40.4583 16.9056 40.6695 16.9314 40.806 16.8973C40.2613 16.087 39.5314 15.4329 39.0136 14.6002C38.648 14.6858 38.6427 14.8309 38.8427 15.0372C38.1786 15.1686 38.0085 14.566 37.6064 14.9076C38.1799 15.4006 39.4842 15.2774 39.7372 16.0407C38.817 15.8398 38.1964 15.3868 36.9085 15.496C36.5023 15.3617 35.9929 15.4228 35.6327 15.3155C35.492 15.2735 35.3751 15.2045 35.2952 15.0894C35.2863 15.0766 35.2764 15.065 35.2684 15.0511C35.2784 15.0463 35.288 15.0426 35.298 15.0379C35.4404 14.9719 35.5732 14.9301 35.6985 14.8996C36.0829 14.8062 36.3988 14.8125 36.7225 14.5045C36.3093 14.3037 36.0311 14.462 35.7423 14.6323C35.6052 14.7133 35.4655 14.7969 35.3079 14.8458C35.2376 14.8677 35.1635 14.8822 35.0848 14.8871C34.978 14.8935 34.8618 14.8807 34.7334 14.8417C34.6567 14.8184 34.5757 14.7865 34.4893 14.742C34.5241 14.859 34.4296 14.6565 34.4308 14.8019C33.3441 14.8726 32.3011 14.9782 31.1587 15.0045C30.7923 15.0128 30.4158 15.0132 30.0242 15.0013C30.0474 14.7329 30.6202 14.9049 30.7261 14.7026C30.5715 14.6645 30.3895 14.6425 30.1927 14.6316C29.3777 14.5868 28.3035 14.738 27.8123 14.7723C27.6231 14.7854 27.5195 14.7815 27.5521 14.7418C27.4979 14.7907 27.4182 14.8484 27.3225 14.9107C27.2364 14.9666 27.1375 15.0261 27.0308 15.0864C26.9403 15.1376 26.8444 15.1893 26.7473 15.2396C26.2251 15.5098 25.6621 15.7395 25.644 15.6362C25.6555 16.5307 24.9004 15.6149 24.211 15.5079C24.1613 15.8429 24.7225 15.6626 24.7455 15.9362C24.0595 16.4867 22.8866 16.6467 23.0058 17.8422C22.4109 17.9045 22.5362 17.5518 22.2307 17.5555C21.82 17.7253 22.2895 17.9535 22.7024 17.9485C23.2195 18.3966 22.0363 17.849 22.0479 18.7717C22.861 19.0313 23.2798 18.4863 23.2798 18.4863C23.9175 18.7297 24.408 19.2478 24.9676 19.5574C25.0419 19.9038 24.1634 19.4869 24.4441 19.9987C24.7796 19.9516 24.9386 20.0536 25.1459 20.1147C25.2819 20.1548 25.4384 20.1775 25.6801 20.1283C25.8959 20.2474 26.0017 20.4591 26.167 20.6207C26.2966 20.7475 26.4628 20.8436 26.7473 20.8399C26.8708 20.4427 26.3931 20.5526 26.3874 20.2645C27.2457 20.4687 28.052 20.7165 29.0396 20.8115C28.2939 21.3411 27.3481 20.917 26.2203 20.9915C26.4013 21.229 26.971 21.1394 27.2818 21.2683C27.1113 21.4185 26.9368 21.5657 26.7583 21.7095C27.077 22.093 27.9213 21.6961 27.8109 21.2616C28.9946 21.2537 29.937 21.0524 30.981 20.9325C31.3489 20.8665 31.4493 21.026 31.6882 21.0686C33.3069 20.661 33.8111 21.6005 35.5729 21.4557C35.4993 21.0294 34.7386 21.1824 34.5076 20.8889C35.381 20.5366 36.7216 20.5587 37.3179 19.9842C39.7922 19.6074 40.4489 20.7626 41.919 21.232C41.4367 20.9551 41.108 20.5486 40.4972 20.3801C41.2848 19.7474 43.0794 21.2735 43.3167 20.2002C42.0172 20.0751 40.7966 19.8833 39.6066 19.6664Z" fill="#614930"/>
<path d="M39.3555 48.7742C37.7668 49.0624 38.2381 47.1098 38.2592 46.9199C38.2802 46.73 40.0363 46.6298 40.3092 46.8979C40.5817 47.1658 40.9471 48.7878 39.3555 48.7742ZM38.3735 44.3914C38.6709 44.1343 40.4438 43.8154 40.3967 45.3488C40.6775 46.8847 38.562 46.391 38.3553 46.367C38.1491 46.3428 38.0761 44.6489 38.3735 44.3914ZM35.7146 46.1652C35.5473 45.9192 35.4331 44.7204 35.5975 44.4623C36.3532 43.9607 38.1994 43.6392 37.8513 45.8945C37.9511 46.5516 35.882 46.4113 35.7146 46.1652ZM37.6525 48.4541C37.3461 48.6865 35.4842 49.0179 35.4892 47.6872C35.1478 46.3639 37.3953 46.7262 37.6138 46.7409C37.8323 46.7553 37.9588 48.2219 37.6525 48.4541ZM35.0751 44.123C34.6118 44.8045 34.8333 48.0246 35.2674 48.6953C35.7017 49.3659 41.2854 49.8757 41.0635 48.1082C42.1684 42.0864 37.1541 42.8286 35.0751 44.123Z" fill="#614930"/>
<path d="M74.2111 39.7787C74.0386 40.1071 73.5623 40.1764 73.1966 40.2011C73.1834 40.2091 73.1686 40.2158 73.1519 40.2206C72.7264 40.346 72.4268 39.855 72.4256 39.4974C72.4241 39.1472 72.6434 38.8546 72.9792 38.7478C73.1641 38.6895 73.3588 38.6835 73.5516 38.6895C73.7222 38.6943 73.9033 38.7018 74.0577 38.7826C74.3981 38.9607 74.3666 39.4818 74.2111 39.7787ZM75.7149 37.634C75.5807 37.5962 75.461 37.5499 75.3799 37.4273C75.309 37.3201 75.2997 37.1922 75.2556 37.0737C75.1708 36.8459 74.9675 36.6755 74.7381 36.6153C74.456 36.5414 74.1988 36.7142 73.9184 36.7168C73.7509 36.7179 73.5919 36.6588 73.4334 36.6117C73.2922 36.5696 73.1487 36.5385 73.0021 36.5235C72.48 36.471 71.8209 36.7098 71.7737 37.3306C71.7713 37.3627 71.7612 37.3888 71.7469 37.4094C71.7657 37.692 71.7512 38.0176 71.4947 38.1893C71.3692 38.2735 71.2168 38.2961 71.0875 38.3737C70.9706 38.4431 70.8724 38.5414 70.7945 38.6538C70.4568 39.1429 70.6511 39.8283 71.1899 40.0579C71.3135 40.1106 71.4534 40.1082 71.5739 40.1653C71.6851 40.2179 71.7505 40.3172 71.7975 40.4294C71.8472 40.5475 71.8923 40.6393 72.0084 40.7009C72.1105 40.7554 72.2278 40.7765 72.3409 40.7894C72.7745 40.8388 73.3662 40.8373 73.7028 40.5026C73.8009 40.4047 73.8532 40.2654 73.9749 40.1929C74.0958 40.1207 74.23 40.136 74.3635 40.1325C74.6304 40.1247 74.8965 40.0379 75.1242 39.8953C75.2434 39.8208 75.3554 39.727 75.4492 39.6213C75.4854 39.5806 75.5528 39.5153 75.5558 39.4568C75.5587 39.3896 75.5134 39.3431 75.5283 39.2684C75.5581 39.1188 75.689 39.0752 75.8215 39.0713C75.9453 39.0678 76.0269 39.0072 76.0767 38.8886C76.1719 38.6607 76.1522 38.3366 76.1034 38.099C76.0555 37.8645 75.9456 37.6987 75.7149 37.634Z" fill="#E13439"/>
<path d="M65.8209 34.3633C65.9703 33.6634 66.7998 33.6226 67.3792 33.6135C68.0185 33.6034 68.7426 33.6904 69.2095 34.1716C69.4089 34.3771 69.5333 34.6662 69.4587 34.9511C69.4049 35.1572 69.2529 35.3408 69.05 35.4085C69.0353 35.4237 69.017 35.437 68.9945 35.4474C68.6163 35.6241 68.2232 35.7753 67.8197 35.8853C67.4725 35.9798 67.0859 36.0313 66.74 35.9032C66.4306 35.7886 66.2157 35.5251 66.0462 35.2557C65.8805 34.9933 65.7541 34.6769 65.8209 34.3633ZM65.6855 37.3079C65.8838 37.4099 66.1233 37.4195 66.3421 37.443C66.5651 37.4667 66.7915 37.4878 67.0154 37.4721C67.3909 37.4456 67.7626 37.3178 67.9713 37.0074C68.0427 36.9003 68.1743 36.931 68.2384 37.0104C68.2667 37.0306 68.2895 37.0601 68.3012 37.1C68.357 37.2902 68.627 37.3341 68.8025 37.3462C69.0551 37.3639 69.3368 37.3295 69.5739 37.2472C69.8258 37.1602 70.0574 36.9927 70.1377 36.7407C70.2191 36.4829 70.0547 36.2537 69.9038 36.0513C69.7992 35.9112 69.9312 35.7623 70.0944 35.7998C70.3145 35.8509 70.54 35.7173 70.6523 35.5466C70.7836 35.3473 70.798 35.0908 70.7506 34.8643C70.7281 34.7565 70.6893 34.6489 70.6278 34.5549C70.566 34.4601 70.4718 34.3956 70.4034 34.3072C70.2603 34.1225 70.3568 33.8794 70.3061 33.6687C70.2114 33.2735 69.8566 32.9811 69.4326 32.9419C69.3117 32.9306 69.189 32.9395 69.0722 32.9695C68.9706 32.9957 68.8764 33.0463 68.7716 33.0618C68.5352 33.0972 68.4179 32.9549 68.3512 32.7633C68.1971 32.3232 67.5948 32.3721 67.212 32.4131C66.7724 32.4604 66.3147 32.5746 66.1811 33.0203C66.1186 33.2288 65.957 33.2902 65.7416 33.2643C65.537 33.2398 65.3302 33.226 65.1247 33.2426C64.7414 33.2735 64.3419 33.4025 64.1302 33.7244C63.9526 33.9932 63.936 34.3576 64.0664 34.6491C64.2398 35.0379 64.6448 35.1867 65.0373 35.3212C65.158 35.3624 65.183 35.521 65.0855 35.5958C64.4454 36.0866 65.1453 37.0292 65.6855 37.3079Z" fill="#E13439"/>
<path d="M70.0818 43.2009C69.9685 43.1474 69.8287 43.1717 69.7099 43.1315C69.5857 43.0899 69.4951 42.9872 69.4881 42.8446C69.4834 42.746 69.5229 42.652 69.5492 42.5583C69.5757 42.4656 69.5984 42.3719 69.6163 42.2772C69.6563 42.0686 69.678 41.8564 69.6817 41.6445C69.6844 41.4817 69.7009 41.2562 69.6336 41.1058C69.5676 40.958 69.3039 41.0026 69.1785 41.0092C68.9869 41.0193 68.8034 41.0645 68.6142 41.092C68.4522 41.1156 68.291 41.0978 68.1644 40.9809C68.0606 40.8848 68.0054 40.7481 67.9559 40.6138C67.9029 40.4697 67.8493 40.3345 67.7308 40.238C67.615 40.1433 67.4682 40.0919 67.321 40.1101C67.1806 40.1274 67.0465 40.2035 66.951 40.3154C66.8539 40.4293 66.8257 40.5712 66.7678 40.707C66.7088 40.8455 66.6202 40.965 66.4776 41.0069C66.3252 41.0517 66.1375 41.0236 65.9843 40.9959C65.8298 40.9675 65.6778 40.9144 65.5593 40.8026C65.5059 40.7523 65.4627 40.6639 65.383 40.683C65.3063 40.7017 65.2374 40.7632 65.1745 40.8112L64.1799 41.562C64.0275 41.6777 63.8655 41.7856 63.7223 41.9142C63.5868 42.0365 63.5414 42.2003 63.5481 42.3843C63.5607 42.7489 63.7516 43.1056 63.6685 43.476C63.6268 43.6617 63.4965 43.7468 63.3343 43.7968C63.1708 43.8477 62.9938 43.8969 62.8658 44.027C62.7585 44.1356 62.6902 44.3063 62.7689 44.4523C62.8304 44.5664 62.9516 44.6371 63.061 44.6881C63.311 44.8047 63.5912 44.8505 63.8048 45.045C63.9065 45.1373 63.9848 45.2524 64.0165 45.3935C64.0343 45.4737 64.0318 45.5591 64.0229 45.6412C64.0142 45.7231 63.9848 45.8257 64.012 45.9064C64.0383 45.9847 64.1185 46.0398 64.176 46.0896C64.2493 46.1536 64.3234 46.2162 64.3988 46.2769C64.5402 46.3916 64.6856 46.5002 64.8333 46.6048C64.8566 46.5894 64.8868 46.5831 64.9236 46.5918C65.0831 46.6281 65.247 46.6247 65.4029 46.5641C65.5518 46.506 65.6397 46.4012 65.7633 46.306C65.9158 46.188 66.0575 46.3103 66.1227 46.4601C66.1809 46.5938 66.2529 46.6816 66.3826 46.7412C66.665 46.8717 67.0418 46.8683 67.3298 46.7482C67.6299 46.6232 67.8813 46.3168 67.8259 45.9575C67.8084 45.846 67.9171 45.7449 68.0177 45.7887C68.197 45.8669 68.382 45.9303 68.5765 45.9514C68.8867 45.9849 69.2369 45.8992 69.4441 45.6268C69.557 45.4785 69.5986 45.2927 69.6391 45.1114C69.6812 44.9234 69.7291 44.7456 69.8165 44.5748C69.9775 44.2606 70.2863 43.9375 70.2758 43.5577C70.2718 43.4189 70.2061 43.2593 70.0818 43.2009Z" fill="#E13439"/>
<path d="M75.6462 43.8668C75.8938 44.173 76.0747 44.7011 75.8398 45.0589C75.6127 45.4048 75.0579 45.453 74.6659 45.4497C74.6432 45.4754 74.6121 45.4952 74.5713 45.5054C74.3417 45.5617 74.1036 45.4529 73.9645 45.2687C73.8132 45.068 73.795 44.8065 73.8159 44.5655C73.8505 44.1634 73.9811 43.6867 74.4111 43.539C74.8221 43.3979 75.3735 43.5297 75.6462 43.8668ZM73.6683 41.4206C73.5344 41.5155 73.4162 41.6837 73.4979 41.8447C73.5658 41.979 73.3868 42.1279 73.2637 42.0315C73.013 41.8357 72.6333 41.8204 72.3812 42.0233C72.1275 42.2279 72.0772 42.6291 72.2599 42.8943C72.2793 42.9225 72.2877 42.9511 72.2885 42.9792C72.3599 43.0226 72.4314 43.0659 72.503 43.1092C72.6325 43.1876 72.5482 43.4113 72.396 43.3844C72.1653 43.3433 71.7985 43.2898 71.6954 43.5613C71.6425 43.7 71.66 43.8605 71.6508 44.0058C71.6415 44.1522 71.6105 44.2925 71.5345 44.4205C71.4583 44.5484 71.3391 44.653 71.2883 44.7944C71.2445 44.9161 71.2492 45.0557 71.2976 45.1756C71.4047 45.4383 71.7241 45.5693 71.9954 45.4748C72.1134 45.4337 72.2167 45.5087 72.2173 45.6286C72.2181 45.8841 72.3691 46.1358 72.599 46.2606C72.8484 46.3954 73.1475 46.3653 73.383 46.2231C73.4575 46.1782 73.557 46.2314 73.5918 46.298C73.81 46.7178 74.2213 47.0378 74.6939 47.1455C75.1142 47.2415 75.566 47.1574 75.93 46.9371C76.1105 46.8278 76.2485 46.6859 76.3816 46.5274C76.4507 46.4452 76.5267 46.3706 76.632 46.3355C76.7372 46.3006 76.8529 46.3108 76.9627 46.3039C77.4077 46.2759 77.9174 46.1494 78.1341 45.7289C78.3585 45.2937 78.0198 44.9141 77.7266 44.6096C77.6352 44.5147 77.7311 44.3396 77.8626 44.3609C78.2335 44.4209 78.6399 44.1421 78.6351 43.7587C78.6309 43.427 78.3265 43.1447 77.9931 43.1328C77.8212 43.1267 77.6313 43.1321 77.51 42.9909C77.3996 42.8624 77.4039 42.6695 77.3387 42.5187C77.2016 42.2043 76.9347 41.945 76.6085 41.8167C76.3683 41.7221 75.9135 41.6507 75.771 41.9354C75.7314 42.0145 75.6144 42.0756 75.5325 42.004C75.1823 41.6974 74.792 41.3691 74.3079 41.3049C74.0944 41.2765 73.8483 41.2942 73.6683 41.4206Z" fill="#E13439"/>
<path d="M71.8272 30.1223C71.9466 30.0702 72.0683 30.0274 72.1905 29.9906C72.3727 29.9352 72.5651 29.9071 72.7421 29.823C72.872 29.7616 72.9991 29.6591 73.0289 29.4736C73.061 29.2708 72.9396 29.2266 72.8078 29.2166C72.6378 29.2039 72.5007 29.1667 72.3566 29.0535C72.2448 28.9661 72.1197 28.8213 71.9737 28.8553C71.8278 28.889 71.8428 29.2083 71.8302 29.3479C71.8082 29.592 71.8185 29.8228 71.8267 30.0651C71.8272 30.0843 71.8272 30.1033 71.8272 30.1223Z" fill="#E13439"/>
<path d="M66.1338 25.092C65.9677 24.9842 65.786 24.8393 65.8756 24.6184C65.9106 24.5326 65.9893 24.4656 66.0787 24.4391C66.1799 24.4093 66.2863 24.4461 66.3897 24.4364C66.603 24.4168 66.7141 24.2696 66.7588 24.0746C66.7724 24.0147 66.7738 23.93 66.826 23.9063C66.8923 23.8764 67.0662 23.9156 67.134 23.9253C67.3864 23.9617 67.4819 24.0909 67.5781 24.3129C67.6657 24.5162 67.7167 24.7084 67.6231 24.9192C67.543 25.0997 67.3925 25.2321 67.2124 25.3103C67.1364 25.3429 66.9077 25.4998 66.808 25.5244C66.5833 25.3802 66.358 25.2372 66.1338 25.092Z" fill="#E13439"/>
<path d="M65.1091 27.2456C65.0596 27.0609 64.9372 26.7652 65.1834 26.6638C65.4184 26.5674 65.7145 26.6105 65.9618 26.6438C66.0635 26.6572 66.1645 26.6504 66.2474 26.5922C66.3328 26.532 66.3743 26.4379 66.4714 26.3894C66.5703 26.34 66.6892 26.3179 66.7987 26.294C66.9282 26.2663 67.0688 26.2389 67.2029 26.2654C67.2926 26.2833 67.3902 26.332 67.4354 26.4068C67.4947 26.5043 67.4328 26.607 67.397 26.7005C67.355 26.8096 67.3461 26.909 67.355 27.0243C67.3641 27.1464 67.3173 27.221 67.1956 27.2757C67.0887 27.3235 66.9662 27.3346 66.8503 27.3571C66.7266 27.3814 66.6105 27.4166 66.5013 27.4734C66.3079 27.5739 66.1213 27.7432 65.8833 27.7451C65.6746 27.747 65.4672 27.6783 65.2682 27.7206C65.2054 27.565 65.152 27.4068 65.1091 27.2456Z" fill="#E13439"/>
<path d="M63.8358 32.7137C63.5903 32.7008 63.4021 32.5531 63.289 32.3561C63.1879 32.1803 63.1729 31.9608 63.0225 31.8105C62.8646 31.6537 62.6173 31.6135 62.4241 31.5076C62.2361 31.4047 62.0834 31.2591 62.0614 31.0511C62.0614 31.0493 62.0609 31.0478 62.0609 31.0458C62.0678 31.0301 62.0718 31.0113 62.0711 30.9895C62.0645 30.7382 62.2055 30.5034 62.445 30.3838C62.6655 30.2736 63.0239 30.3697 63.1431 30.1158C63.205 29.9845 63.1614 29.8314 63.1386 29.6961C63.1092 29.5262 63.0727 29.3562 63.0507 29.1858C63.0413 29.1126 63.058 29.1001 63.132 29.0797C63.2034 29.0601 63.2802 29.0509 63.3539 29.0394C63.5422 29.0094 63.7332 28.9898 63.9245 28.9808C64.1021 28.9724 64.2803 28.9747 64.4578 28.9853C64.5914 28.9934 64.7419 28.9955 64.8652 29.053C64.9776 29.1053 64.9829 29.1954 65.0141 29.2962C65.0495 29.4093 65.1113 29.5157 65.2422 29.5506C65.3197 29.5713 65.3628 29.5417 65.4297 29.5123C65.4874 29.487 65.5494 29.4741 65.6131 29.4693C65.7633 29.4582 65.9221 29.49 66.0645 29.5343C66.2779 29.6008 66.5519 29.7294 66.5762 29.9644C66.6034 30.2297 66.426 30.5095 66.6595 30.7386C66.7765 30.8534 66.9441 30.8715 66.9745 31.0486C67.0037 31.22 66.8878 31.3768 66.7659 31.4928C66.7271 31.5294 66.7149 31.5735 66.7204 31.6152C66.673 31.6217 66.6261 31.6286 66.5799 31.6367C66.3473 31.6755 66.1179 31.7477 65.9319 31.8856C65.852 31.9451 65.7785 32.0183 65.7245 32.0991C65.6975 32.1392 65.6726 32.1831 65.654 32.2271C65.6461 32.2467 65.6241 32.3687 65.6163 32.3732C65.595 32.3847 65.3782 32.3479 65.3264 32.3445C65.2144 32.3373 65.1022 32.3368 64.9903 32.3413C64.5944 32.3567 64.1924 32.4712 63.9156 32.7385C63.895 32.7245 63.8685 32.7154 63.8358 32.7137Z" fill="#E13439"/>
</svg>
